<?xml version="1.0" encoding="utf-8"?>
<!-- Generator: Adobe Illustrator 19.2.1, SVG Export Plug-In . SVG Version: 6.00 Build 0)  -->
<svg version="1.1" id="Layer_2" xmlns="http://www.w3.org/2000/svg" xmlns:xlink="http://www.w3.org/1999/xlink" x="0px" y="0px"
	 viewBox="0 0 586.1 119.1" style="enable-background:new 0 0 586.1 119.1;" xml:space="preserve">
<style type="text/css">
	.st0{fill:#686868;}
</style>
<path class="st0" d="M157.2,54.5c0.1,1,0.3,2.6,1.5,3c0.8,0.3,1.6,0.3,1.8,0.3c0.1,0,0.2,0,0.2,0.1c0,0.2-0.3,0.3-0.6,0.3h-2.9
	c-0.7,0-1.5,0-1.8,0c-0.7-0.1-0.9-0.1-0.9-0.3c0-0.1,0.2-0.2,0.3-0.2c0.1,0,0.1-0.6,0.1-1.1l-1.4-14.7h-0.1l-7,14.8
	c-0.6,1.3-0.7,1.5-0.9,1.5c-0.2,0-0.3-0.3-0.9-1.3c-0.7-1.4-3.2-6.3-3.3-6.6c-0.3-0.5-3.4-7.3-3.8-8.1h-0.1l-1.1,13.2
	c0,0.5,0,1,0,1.5c0,0.4,0.3,0.8,0.7,0.9c0.5,0.1,0.9,0.1,1.1,0.1c0.1,0,0.2,0.1,0.2,0.1c0,0.2-0.2,0.3-0.5,0.3
	c-1.1,0-2.4-0.1-2.6-0.1c-0.3,0-1.6,0.1-2.4,0.1c-0.3,0-0.5-0.1-0.5-0.3c0-0.1,0.1-0.1,0.3-0.1c0.2,0,0.4,0,0.9-0.1
	c0.9-0.2,1-1.3,1.1-2.4l2-18.5c0.1-0.3,0.1-0.5,0.3-0.5c0.2,0,0.3,0.1,0.4,0.4l8.7,17.9l8.4-17.9c0.1-0.3,0.2-0.5,0.4-0.5
	c0.2,0,0.3,0.2,0.3,0.8L157.2,54.5z M165.9,58c-0.1,0.9,0.3,1.1,0.7,0.5l0.3-0.5l2.4-3c3.5-4.6,7.3-9.1,11-13.5
	c0.3-0.3,0.4-0.1,0.4,0.2v8.2c0,2.7,0,5-0.1,6.2c-0.1,0.8-0.3,1.5-0.8,1.6c-0.3,0.1-0.6,0.1-0.9,0.1c-0.2,0-0.2,0.1-0.2,0.2
	c0,0.2,0.1,0.2,0.5,0.2c0.9,0,2.6-0.1,2.8-0.1c0.1,0,1.9,0.1,3.5,0.1c0.3,0,0.5-0.1,0.5-0.2c0-0.1-0.1-0.2-0.2-0.2
	c-0.3,0-0.9-0.1-1.3-0.1c-0.9-0.1-1-0.7-1.1-1.6c-0.1-1.2-0.1-3.4-0.1-6.2v-5V37c0.1-0.9-0.3-1.1-0.7-0.5c-5.8,7.5-9.8,12.3-13.9,17
	c-0.1,0.1-0.3,0.1-0.3-0.1c0-9.4,0-13.8,0.1-14.7c0.1-1,0.3-1.5,1.1-1.6c0.3-0.1,0.5-0.1,0.7-0.1c0.1,0,0.2-0.1,0.2-0.2
	c0-0.2-0.1-0.2-0.5-0.2c-0.9,0-2.6,0.1-2.8,0.1s-1.9-0.1-3.2-0.1c-0.3,0-0.5,0.1-0.5,0.2c0,0.1,0.1,0.2,0.2,0.2c0.3,0,0.7,0,1,0.1
	c0.9,0.2,1.2,0.7,1.2,1.6c0.1,0.9,0,1.7,0.1,6.1V58z M210.4,44.9c0-4.4,0-5.2,0.1-6.1c0.1-1,0.3-1.5,1.1-1.6
	c0.3-0.1,0.5-0.1,0.7-0.1c0.1,0,0.2-0.1,0.2-0.2c0-0.2-0.1-0.2-0.5-0.2c-0.9,0-2.6,0.1-2.8,0.1c-0.1,0-1.9-0.1-3.2-0.1
	c-0.3,0-0.5,0.1-0.5,0.2c0,0.1,0.1,0.2,0.2,0.2c0.3,0,0.7,0,1,0.1c0.9,0.2,1.2,0.7,1.2,1.6c0.1,0.9,0.1,2,0.1,6.5v0.6
	c0,0.1-0.1,0.2-0.2,0.2h-12.1c-0.1,0-0.2,0-0.2-0.2v-0.6c0-4.4,0-5.5,0.1-6.5c0.1-1,0.3-1.5,1.1-1.6c0.3-0.1,0.5-0.1,0.7-0.1
	c0.1,0,0.2-0.1,0.2-0.2c0-0.2-0.1-0.2-0.5-0.2c-0.9,0-2.6,0.1-2.8,0.1c-0.1,0-1.9-0.1-3.2-0.1c-0.3,0-0.5,0.1-0.5,0.2
	c0,0.1,0.1,0.2,0.2,0.2c0.3,0,0.7,0,1,0.1c0.9,0.2,1.2,0.7,1.2,1.6c0.1,0.9,0.1,1.7,0.1,6.1v5c0,2.7,0,5-0.1,6.2
	c-0.1,0.8-0.3,1.5-0.8,1.6c-0.3,0.1-0.6,0.1-0.9,0.1c-0.2,0-0.2,0.1-0.2,0.2c0,0.2,0.1,0.2,0.5,0.2c0.9,0,2.6-0.1,2.8-0.1
	c0.1,0,1.9,0.1,3.5,0.1c0.3,0,0.5-0.1,0.5-0.2c0-0.1-0.1-0.2-0.2-0.2c-0.3,0-0.9-0.1-1.3-0.1c-0.9-0.1-1-0.7-1.1-1.6
	c-0.1-1.2-0.1-3.4-0.1-6.2v-2.7c0-0.1,0.1-0.2,0.2-0.2h12.1c0.1,0,0.2,0.1,0.2,0.2v2.7c0,2.7,0,5-0.1,6.2c-0.1,0.8-0.3,1.5-0.8,1.6
	c-0.3,0.1-0.6,0.1-0.9,0.1c-0.2,0-0.2,0.1-0.2,0.2c0,0.2,0.1,0.2,0.5,0.2c0.9,0,2.6-0.1,2.8-0.1c0.1,0,1.9,0.1,3.5,0.1
	c0.3,0,0.5-0.1,0.5-0.2c0-0.1-0.1-0.2-0.2-0.2c-0.3,0-0.9-0.1-1.3-0.1c-0.9-0.1-1-0.7-1.1-1.6c-0.1-1.2-0.1-3.4-0.1-6.2V44.9z
	 M220.5,58c-0.1,0.9,0.3,1.1,0.7,0.5l0.3-0.5l2.4-3c3.5-4.6,7.3-9.1,11-13.5c0.3-0.3,0.4-0.1,0.4,0.2v8.2c0,2.7,0,5-0.1,6.2
	c-0.1,0.8-0.3,1.5-0.8,1.6c-0.3,0.1-0.6,0.1-0.9,0.1c-0.2,0-0.2,0.1-0.2,0.2c0,0.2,0.1,0.2,0.5,0.2c0.9,0,2.6-0.1,2.8-0.1
	c0.1,0,1.9,0.1,3.5,0.1c0.3,0,0.5-0.1,0.5-0.2c0-0.1-0.1-0.2-0.2-0.2c-0.3,0-0.9-0.1-1.3-0.1c-0.9-0.1-1-0.7-1.1-1.6
	c-0.1-1.2-0.1-3.4-0.1-6.2v-5V37c0.1-0.9-0.3-1.1-0.7-0.5c-5.8,7.5-9.8,12.3-13.9,17c-0.1,0.1-0.3,0.1-0.3-0.1
	c0-9.4,0-13.8,0.1-14.7c0.1-1,0.3-1.5,1.1-1.6c0.3-0.1,0.5-0.1,0.7-0.1c0.1,0,0.2-0.1,0.2-0.2c0-0.2-0.1-0.2-0.5-0.2
	c-0.9,0-2.6,0.1-2.8,0.1c-0.1,0-1.9-0.1-3.2-0.1c-0.3,0-0.5,0.1-0.5,0.2c0,0.1,0.1,0.2,0.2,0.2c0.3,0,0.7,0,1,0.1
	c0.9,0.2,1.2,0.7,1.2,1.6c0.1,0.9,0,1.7,0.1,6.1V58z M243.6,47c0,6.6,4.2,11.5,12.8,11.5c1.8,0,4-0.2,5.1-0.7
	c0.5-0.2,0.6-0.3,0.7-0.8c0.3-1,0.6-3.4,0.6-3.6c0-0.2-0.1-0.4-0.2-0.4c-0.2,0-0.2,0.1-0.3,0.4c-0.1,0.5-0.5,1.8-1.1,2.4
	c-1.1,1.2-2.8,1.4-5,1.4c-6.1,0-10.3-5-10.3-10.4c0-5,1.8-9.5,9.1-9.5c3.6,0,6.9,1.2,6.9,4.5c0,0.4,0,0.6,0.2,0.6
	c0.2,0,0.3-0.4,0.3-1.8c0-1.7,0.2-3,0.2-3.3c0-0.2-0.1-0.3-0.4-0.3c-1.1,0-3.6-0.8-7-0.8C246.4,36.2,243.6,42.5,243.6,47
	 M276.8,37.9l3.6,0.1c2.7,0.1,3.4,0.7,3.5,1.6l0,0.3c0,0.4,0.1,0.5,0.2,0.5c0.1,0,0.2-0.1,0.2-0.4c0-0.3,0.1-2.3,0.1-3.1
	c0-0.2,0-0.3-0.1-0.3c-0.2,0-1,0.3-2.8,0.3h-10.7c-0.3,0-1.4-0.1-2.2-0.1c-0.8-0.1-1.1-0.3-1.3-0.3c-0.1,0-0.2,0.4-0.3,0.5
	c-0.1,0.2-0.6,2.7-0.6,3c0,0.2,0.1,0.3,0.1,0.3c0.1,0,0.2-0.1,0.3-0.3c0.1-0.2,0.2-0.4,0.5-0.9c0.5-0.7,1.1-0.9,2.9-0.9l4.2-0.1v12
	c0,2.7,0,5-0.1,6.2c-0.1,0.8-0.3,1.5-0.8,1.6c-0.3,0.1-0.6,0.1-0.9,0.1c-0.2,0-0.2,0.1-0.2,0.2c0,0.2,0.1,0.2,0.5,0.2
	c0.9,0,2.6-0.1,2.8-0.1c0.1,0,1.9,0.1,3.5,0.1c0.3,0,0.5-0.1,0.5-0.2c0-0.1-0.1-0.2-0.2-0.2c-0.3,0-0.9-0.1-1.3-0.1
	c-0.9-0.1-1-0.7-1.1-1.6c-0.1-1.2-0.1-3.4-0.1-6.2V37.9z M292.8,38c0-0.2,0.1-0.3,0.2-0.3c0.6,0,3.1,0.1,3.3,0.1
	c1.7,0,2.4,0.6,2.5,0.9c0.2,0.4,0.3,0.9,0.3,1.1c0,0.2,0.1,0.3,0.2,0.3c0.1,0,0.2-0.1,0.2-0.3c0.1-0.3,0.1-1.6,0.1-1.9
	c0.1-0.8,0.2-1.1,0.2-1.3c0-0.1-0.1-0.3-0.2-0.3c-0.1,0-0.2,0.1-0.4,0.2c-0.1,0-0.8,0.1-1.3,0.1c-0.5,0-3.4,0.1-6.4,0.1
	c-0.1,0-1.9-0.1-3.2-0.1c-0.3,0-0.5,0.1-0.5,0.2c0,0.1,0.1,0.2,0.2,0.2c0.3,0,0.7,0,1,0.1c0.9,0.2,1.1,0.6,1.2,1.3
	c0.1,0.5,0.1,1.7,0.1,6.5v5c0,3.5-0.1,5.8-0.2,6.5c-0.2,0.8-0.3,1.1-0.8,1.2c-0.3,0.1-0.6,0.1-0.9,0.1c-0.2,0-0.2,0.1-0.2,0.2
	c0,0.2,0.1,0.2,0.5,0.2c0.6,0,2-0.1,2.8-0.1c0.8,0,2.7,0.2,7,0.2c1.1,0,1.3,0,1.5-0.7c0.1-0.6,0.4-2.5,0.4-2.8c0-0.2,0-0.4-0.2-0.4
	c-0.1,0-0.2,0.1-0.3,0.4c-0.2,1.2-0.5,1.7-1.3,2c-0.7,0.3-2,0.3-2.7,0.3c-2.8,0-3.3-0.5-3.3-2.3v-7.4c0-0.1,0.1-0.2,0.2-0.2
	c0.5,0,3.3,0.1,4.1,0.1c1.1,0.1,1.4,0.6,1.5,1c0.1,0.4,0.1,0.7,0.1,0.9c0,0.1,0.1,0.3,0.2,0.3c0.2,0,0.2-0.2,0.2-0.5
	c0-1.4,0.3-3.3,0.3-3.4c0-0.2-0.1-0.2-0.1-0.2c-0.1,0-0.2,0.1-0.4,0.4c-0.3,0.3-0.7,0.3-1.3,0.4c-0.7,0.1-4.2,0.1-4.5,0.1
	c-0.1,0-0.2-0.1-0.2-0.3V38z M307.7,49.9c0,2.7,0,5-0.1,6.2c-0.1,0.8-0.3,1.5-0.8,1.6c-0.3,0.1-0.6,0.1-0.9,0.1
	c-0.2,0-0.2,0.1-0.2,0.2c0,0.2,0.1,0.2,0.5,0.2c0.9,0,2.6-0.1,2.7-0.1c0.1,0,1.9,0.1,3.5,0.1c0.3,0,0.5-0.1,0.5-0.2
	c0-0.1-0.1-0.2-0.2-0.2c-0.3,0-0.9-0.1-1.3-0.1c-0.9-0.1-1-0.7-1.1-1.6c-0.1-1.2-0.1-3.4-0.1-6.2V38.2c0-0.3,0.1-0.5,0.2-0.5
	c0.3-0.1,0.7-0.2,1.2-0.2c0.7,0,2.4-0.1,3.9,1.4c1.5,1.5,1.6,3.4,1.6,4.4c0,2.6-2.2,4.6-4.9,4.6c-0.6,0-0.8,0-0.8,0.3
	c0,0.1,0.2,0.2,0.3,0.2c0.1,0,0.5,0,0.6,0c4,0,7-2.7,7-6.8c0-1.5-0.8-2.8-1.4-3.4c-0.5-0.4-1.7-1.6-5.3-1.6c-1.3,0-3,0.1-3.6,0.1
	c-0.2,0-1.9-0.1-3.2-0.1c-0.3,0-0.5,0.1-0.5,0.2c0,0.1,0.1,0.2,0.2,0.2c0.3,0,0.7,0,1,0.1c0.9,0.2,1.2,0.7,1.2,1.6
	c0.1,0.9,0.1,1.7,0.1,6.1V49.9z M322.8,47c0,6.6,4.2,11.5,12.8,11.5c1.8,0,4-0.2,5.1-0.7c0.5-0.2,0.6-0.3,0.7-0.8
	c0.3-1,0.6-3.4,0.6-3.6c0-0.2-0.1-0.4-0.2-0.4c-0.2,0-0.2,0.1-0.3,0.4c-0.1,0.5-0.5,1.8-1.1,2.4c-1.1,1.2-2.8,1.4-5,1.4
	c-6.1,0-10.3-5-10.3-10.4c0-5,1.8-9.5,9.1-9.5c3.6,0,6.9,1.2,6.9,4.5c0,0.4,0,0.6,0.2,0.6c0.2,0,0.3-0.4,0.3-1.8
	c0-1.7,0.2-3,0.2-3.3c0-0.2-0.1-0.3-0.4-0.3c-1.1,0-3.6-0.8-7-0.8C325.6,36.2,322.8,42.5,322.8,47 M355,37.9l3.6,0.1
	c2.7,0.1,3.4,0.7,3.5,1.6l0,0.3c0,0.4,0.1,0.5,0.2,0.5c0.1,0,0.2-0.1,0.2-0.4c0-0.3,0.1-2.3,0.1-3.1c0-0.2,0-0.3-0.1-0.3
	c-0.2,0-1,0.3-2.8,0.3H349c-0.3,0-1.4-0.1-2.2-0.1c-0.8-0.1-1.1-0.3-1.3-0.3c-0.1,0-0.2,0.4-0.3,0.5c-0.1,0.2-0.6,2.7-0.6,3
	c0,0.2,0.1,0.3,0.1,0.3c0.1,0,0.2-0.1,0.3-0.3c0.1-0.2,0.2-0.4,0.5-0.9c0.5-0.7,1.1-0.9,2.9-0.9l4.2-0.1v12c0,2.7,0,5-0.1,6.2
	c-0.1,0.8-0.3,1.5-0.8,1.6c-0.3,0.1-0.6,0.1-0.9,0.1c-0.2,0-0.2,0.1-0.2,0.2c0,0.2,0.1,0.2,0.5,0.2c0.9,0,2.6-0.1,2.8-0.1
	c0.1,0,1.9,0.1,3.5,0.1c0.3,0,0.5-0.1,0.5-0.2c0-0.1-0.1-0.2-0.2-0.2c-0.3,0-0.9-0.1-1.3-0.1c-0.9-0.1-1-0.7-1.1-1.6
	c-0.1-1.2-0.1-3.4-0.1-6.2V37.9z M380.8,52c0,3-2.4,6.2-7.3,6.2c-0.7,0-3.6-0.2-3.8-0.2c-0.1,0-1.9,0.1-2.8,0.1
	c-0.3,0-0.5-0.1-0.5-0.2c0-0.1,0.1-0.2,0.2-0.2c0.3,0,0.6,0,0.9-0.1c0.5-0.1,0.6-0.4,0.8-1.2c0.1-0.7,0.2-3,0.2-6.5v-5
	c0-4.8,0-6-0.1-6.5c-0.1-0.7-0.3-1.1-1.2-1.3c-0.2-0.1-0.7-0.1-1-0.1c-0.1,0-0.2-0.1-0.2-0.2c0-0.2,0.1-0.2,0.5-0.2
	c1.3,0,3.1,0.1,3.2,0.1c0.7,0,1.8-0.1,3.1-0.1c4.7,0,5.7,2.8,5.7,4.3c0,2.3-1.3,3.7-2.7,5.1C378,46.7,380.8,48.7,380.8,52z
	 M370.8,45.5c0,0.2,0.1,0.3,0.2,0.3c0.2,0,0.7,0.1,1.7,0.1c1.6,0,2-0.1,2.6-0.7c0.6-0.7,1-1.7,1-2.9c0-2.4-1.1-4.9-3.8-4.9
	c-0.3,0-0.9,0-1.4,0.1c-0.3,0.1-0.3,0.1-0.3,0.3V45.5z M378.4,53.3c0-1.7-0.6-4.2-2.8-5.7c-1.1-0.7-2-0.9-3-0.9
	c-1.7,0-1.7,0-1.7,0.2v6.9c0,2.1,0.1,2.6,1,3.1c0.8,0.4,2,0.4,2.5,0.4C375.9,57.3,378.4,56.5,378.4,53.3z M406.3,46.9
	c0,6.4-4.5,11.6-11.3,11.6c-7.8,0-11-6.1-11-11.2c0-4.6,3.4-11.1,11.2-11.1C401.5,36.2,406.3,40.3,406.3,46.9z M403.5,47.7
	c0-6.8-4.2-10.5-8.6-10.5c-4.8,0-8.3,3.1-8.3,9.4c0,6.6,4,10.9,9.1,10.9C398.2,57.5,403.5,56,403.5,47.7z M422.4,49.9
	c0,2.7,0,5-0.1,6.2c-0.1,0.8-0.3,1.5-0.8,1.6c-0.3,0.1-0.6,0.1-0.9,0.1c-0.2,0-0.2,0.1-0.2,0.2c0,0.2,0.1,0.2,0.5,0.2
	c0.9,0,2.5-0.1,2.7-0.1c0.2,0,1.9,0.1,3.3,0.1c0.3,0,0.5-0.1,0.5-0.2c0-0.1-0.1-0.2-0.2-0.2c-0.3,0-0.7-0.1-1.1-0.1
	c-0.9-0.1-1-0.7-1.1-1.6c-0.2-1.6-0.1-3.3-0.1-6.2v-2.8h0.1c1.4,1.7,7.4,8.2,8.7,9.2c1.2,1,1.9,1.6,3.4,1.7c0.6,0.1,1.2,0.1,2,0.1
	h1.4c0.5,0,0.6-0.1,0.6-0.2c0-0.1-0.2-0.2-0.4-0.2c-0.2,0-1-0.1-1.8-0.4c-1.4-0.6-1.8-1-4.2-3.2c-1.2-1.1-7.1-7.2-7.8-8
	c0.6-0.7,5.5-5.5,6.3-6.2c1.3-1.2,1.9-1.9,3.1-2.4c0.6-0.3,1.2-0.4,1.6-0.4c0.2,0,0.3-0.1,0.3-0.2c0-0.1-0.1-0.2-0.4-0.2
	c-0.7,0-2.6,0.1-2.7,0.1c-0.7,0-1.6-0.1-2.1-0.1c-0.2,0-0.3,0.1-0.3,0.2c0,0.1,0.1,0.2,0.3,0.2c0.2,0.1,0.4,0.3,0.4,0.6
	c0,0.5-0.7,1.2-1.5,2c-1,1.1-6.2,6.3-6.7,6.9h-0.1v-1.7c0-4.4,0-5.2,0.1-6.1c0.1-1,0.3-1.5,1.1-1.6c0.3-0.1,0.5-0.1,0.7-0.1
	c0.1,0,0.2-0.1,0.2-0.2c0-0.2-0.1-0.2-0.5-0.2c-0.9,0-2.5,0.1-2.8,0.1c-0.2,0-1.8-0.1-3.1-0.1c-0.3,0-0.5,0.1-0.5,0.2
	c0,0.1,0.1,0.2,0.2,0.2c0.3,0,0.7,0,1,0.1c0.9,0.2,1.2,0.7,1.2,1.6c0.1,0.9,0.1,1.7,0.1,6.1V49.9z M452.2,55.9
	c-0.8,2-1.4,3.4-2.8,3.4c-1.1,0-1.9-1.3-1.9-2.8c0-0.4,0-0.5-0.2-0.5c-0.1,0-0.1,0-0.2,0.3c-0.1,0.9-0.2,2.6-0.2,3.6
	c0,0.3,0.1,0.5,0.4,0.7c0.5,0.3,1.5,0.5,2,0.5c1.5,0,2.9-1.5,3.9-3.9l7-17c0.8-2,1.3-2.4,1.7-2.7c0.5-0.3,1.2-0.3,1.4-0.3
	c0.2,0,0.3-0.1,0.3-0.2c0-0.1-0.1-0.2-0.5-0.2c-0.8,0-2,0.1-2.2,0.1c-0.3,0-1.7-0.1-2.8-0.1c-0.5,0-0.6,0.1-0.7,0.2
	c0,0.1,0.1,0.2,0.3,0.2c0.3,0,0.7,0,1.1,0.1c0.3,0.1,0.3,0.4,0.3,0.7l-0.4,1.3c-0.7,2.2-3.9,10.4-5.5,14.4l-6.4-13.6
	c-0.5-1-0.7-1.8-0.7-2.2c0-0.2,0.1-0.4,0.4-0.6c0.3-0.1,0.8-0.1,1.1-0.1c0.2,0,0.3-0.1,0.3-0.2c0-0.1-0.3-0.2-0.8-0.2
	c-1.1,0-2.4,0.1-2.6,0.1c-0.3,0-2-0.1-3.3-0.1c-0.5,0-0.7,0-0.7,0.2c0,0.1,0.1,0.2,0.2,0.2c0.2,0,0.7,0,1.1,0.1c1,0.3,1.3,0.7,2,2.2
	L452.2,55.9z M467.4,48.5l2.5-7.7c0.1-0.4,0.3-0.4,0.4,0l2.7,7.7l0.5,1.4l2.6,7c0.2,0.5,0,0.7-0.2,0.8c-0.1,0-0.2,0.1-0.2,0.2
	c0,0.2,0.3,0.2,0.9,0.2c2,0.1,4,0.1,4.5,0.1c0.3,0,0.6-0.1,0.6-0.2c0-0.1-0.1-0.2-0.3-0.2c-0.3,0-0.7,0-1.1-0.2
	c-0.6-0.2-1.4-0.6-2.4-3.2c-1.7-4.3-6.2-16.1-6.6-17.2c-0.3-0.9-0.5-1-0.6-1c-0.2,0-0.3,0.2-0.6,1.1L463.5,55
	c-0.5,1.4-1.1,2.5-2.4,2.7c-0.2,0-0.6,0.1-0.8,0.1c-0.1,0-0.3,0.1-0.3,0.2c0,0.2,0.2,0.2,0.5,0.2c1.3,0,2.9-0.1,3.2-0.1
	c0.3,0,1.5,0.1,2.2,0.1c0.3,0,0.4-0.1,0.4-0.2c0-0.1-0.1-0.2-0.3-0.2h-0.3c-0.5,0-1.1-0.3-1.1-0.8c0-0.5,0.1-1.2,0.4-1.9L467.4,48.5
	z M498,52c0,3-2.4,6.2-7.3,6.2c-0.7,0-3.6-0.2-3.8-0.2c-0.1,0-1.9,0.1-2.8,0.1c-0.3,0-0.5-0.1-0.5-0.2c0-0.1,0.1-0.2,0.2-0.2
	c0.3,0,0.6-0.1,0.9-0.1c0.6-0.1,0.7-0.7,0.8-1.6c0.1-1.2,0.1-3.4,0.1-6.2v-5l-0.1-6.1c0-1-0.5-1.4-1.1-1.6c-0.3-0.1-0.7-0.1-0.9-0.1
	c-0.1,0-0.2-0.1-0.2-0.2c0-0.2,0.1-0.2,0.5-0.2c0.9,0,2.7,0.1,2.9,0.1c0.1,0,1.9-0.1,2.8-0.1c0.3,0,0.5,0.1,0.5,0.2
	c0,0.1-0.1,0.2-0.2,0.2c-0.2,0-0.4,0-0.7,0.1c-0.8,0.1-1,0.6-1,1.6l0,6.8c0,0.2,0.1,0.3,0.2,0.3c0.2,0,0.7,0.1,1.7,0.1
	C493,45.9,498,46.8,498,52z M495.6,53.3c0-1.7-0.6-4.2-2.8-5.7c-1.6-1.1-2.6-0.8-4.4-0.8c-0.3,0-0.4,0.2-0.4,0.4v1.4
	c0,2.2,0,5.7,0,6.1c0.1,1.4,0.1,1.8,1,2.2c0.8,0.4,2,0.4,2.5,0.4C493.1,57.3,495.6,56.5,495.6,53.3z M509.4,37.9l3.6,0.1
	c2.7,0.1,3.4,0.7,3.5,1.6l0,0.3c0,0.4,0.1,0.5,0.2,0.5c0.1,0,0.2-0.1,0.2-0.4c0-0.3,0.1-2.3,0.1-3.1c0-0.2,0-0.3-0.1-0.3
	c-0.2,0-1,0.3-2.8,0.3h-10.7c-0.3,0-1.4-0.1-2.2-0.1c-0.8-0.1-1.1-0.3-1.3-0.3c-0.1,0-0.2,0.4-0.3,0.5c-0.1,0.2-0.6,2.7-0.6,3
	c0,0.2,0.1,0.3,0.1,0.3c0.1,0,0.2-0.1,0.3-0.3c0.1-0.2,0.2-0.4,0.5-0.9c0.5-0.7,1.1-0.9,2.9-0.9l4.2-0.1v12c0,2.7,0,5-0.1,6.2
	c-0.1,0.8-0.3,1.5-0.8,1.6c-0.3,0.1-0.6,0.1-0.9,0.1c-0.2,0-0.2,0.1-0.2,0.2c0,0.2,0.1,0.2,0.5,0.2c0.9,0,2.6-0.1,2.8-0.1
	c0.1,0,1.9,0.1,3.5,0.1c0.3,0,0.5-0.1,0.5-0.2c0-0.1-0.1-0.2-0.2-0.2c-0.3,0-0.9-0.1-1.3-0.1c-0.8-0.1-1-0.7-1.1-1.6
	c-0.1-1.2-0.1-3.4-0.1-6.2V37.9z M530.4,55.9c-0.8,2-1.4,3.4-2.8,3.4c-1.1,0-1.9-1.3-1.9-2.8c0-0.4,0-0.5-0.2-0.5
	c-0.1,0-0.1,0-0.2,0.3c-0.1,0.9-0.2,2.6-0.2,3.6c0,0.3,0.1,0.5,0.4,0.7c0.5,0.3,1.5,0.5,2,0.5c1.5,0,2.9-1.5,3.9-3.9l7-17
	c0.8-2,1.3-2.4,1.7-2.7c0.5-0.3,1.2-0.3,1.4-0.3c0.2,0,0.3-0.1,0.3-0.2c0-0.1-0.1-0.2-0.5-0.2c-0.8,0-2,0.1-2.2,0.1
	c-0.3,0-1.7-0.1-2.8-0.1c-0.5,0-0.6,0.1-0.7,0.2c0,0.1,0.1,0.2,0.3,0.2c0.3,0,0.7,0,1.1,0.1c0.3,0.1,0.3,0.4,0.3,0.7l-0.4,1.3
	c-0.7,2.2-3.9,10.4-5.5,14.4l-6.4-13.6c-0.5-1-0.7-1.8-0.7-2.2c0-0.2,0.1-0.4,0.4-0.6c0.3-0.1,0.8-0.1,1.1-0.1
	c0.2,0,0.3-0.1,0.3-0.2c0-0.1-0.3-0.2-0.8-0.2c-1.1,0-2.4,0.1-2.6,0.1c-0.3,0-2-0.1-3.3-0.1c-0.5,0-0.7,0-0.7,0.2
	c0,0.1,0.1,0.2,0.2,0.2c0.2,0,0.7,0,1.1,0.1c1,0.3,1.3,0.7,2,2.2L530.4,55.9z M546.1,49.9c0,2.7,0,5-0.1,6.2
	c-0.1,0.8-0.3,1.5-0.8,1.6c-0.3,0.1-0.6,0.1-0.9,0.1c-0.2,0-0.2,0.1-0.2,0.2c0,0.2,0.1,0.2,0.5,0.2c0.9,0,2.6-0.1,2.7-0.1
	c0.1,0,1.9,0.1,3.5,0.1c0.3,0,0.5-0.1,0.5-0.2c0-0.1-0.1-0.2-0.2-0.2c-0.3,0-0.9-0.1-1.3-0.1c-0.9-0.1-1-0.7-1.1-1.6
	c-0.1-1.2-0.1-3.4-0.1-6.2V38.2c0-0.3,0.1-0.5,0.2-0.5c0.3-0.1,0.7-0.2,1.2-0.2c0.7,0,2.4-0.1,3.9,1.4c1.5,1.5,1.6,3.4,1.6,4.4
	c0,2.6-2.2,4.6-4.9,4.6c-0.6,0-0.8,0-0.8,0.3c0,0.1,0.2,0.2,0.3,0.2c0.1,0,0.5,0,0.6,0c4,0,7-2.7,7-6.8c0-1.5-0.8-2.8-1.4-3.4
	c-0.5-0.4-1.7-1.6-5.3-1.6c-1.3,0-3,0.1-3.6,0.1c-0.2,0-1.9-0.1-3.2-0.1c-0.3,0-0.5,0.1-0.5,0.2c0,0.1,0.1,0.2,0.2,0.2
	c0.3,0,0.7,0,1,0.1c0.9,0.2,1.2,0.7,1.2,1.6c0.1,0.9,0.1,1.7,0.1,6.1V49.9z M576.6,52c0,3-2.4,6.2-7.3,6.2c-0.7,0-3.6-0.2-3.8-0.2
	c-0.1,0-1.9,0.1-2.8,0.1c-0.3,0-0.5-0.1-0.5-0.2c0-0.1,0.1-0.2,0.2-0.2c0.3,0,0.6-0.1,0.9-0.1c0.6-0.1,0.7-0.7,0.8-1.6
	c0.1-1.2,0.1-3.4,0.1-6.2v-5c0-4.4,0-4.4-0.1-6.1c0-1-0.5-1.4-1.1-1.6c-0.3-0.1-0.7-0.1-0.9-0.1c-0.1,0-0.2-0.1-0.2-0.2
	c0-0.2,0.1-0.2,0.5-0.2c0.9,0,2.7,0.1,2.9,0.1c0.1,0,1.9-0.1,2.8-0.1c0.3,0,0.5,0.1,0.5,0.2c0,0.1-0.1,0.2-0.2,0.2
	c-0.2,0-0.4,0-0.7,0.1c-0.8,0.1-1,0.6-1.1,1.6l0,6.8c0,0.2,0.1,0.3,0.2,0.3c0.2,0,0.7,0.1,1.7,0.1h0.9
	C573.4,45.9,576.6,48.2,576.6,52z M574.2,53.3c0-2.6-1.4-6.4-5.9-6.4c-1.5,0-1.7,0.3-1.6,1v0.7c0,2.2,0,5.7,0,6.1
	c0.1,1.4,0.1,1.8,1,2.2c0.8,0.4,2,0.4,2.5,0.4C571.7,57.3,574.2,56.5,574.2,53.3z M583.5,44.9c0-4.4,0-5.2,0.1-6.1
	c0.1-1,0.3-1.5,1.1-1.6c0.3-0.1,0.5-0.1,0.7-0.1c0.1,0,0.2-0.1,0.2-0.2c0-0.2-0.1-0.2-0.5-0.2c-0.9,0-2.6,0.1-2.8,0.1
	c-0.1,0-1.9-0.1-2.9-0.1c-0.3,0-0.5,0.1-0.5,0.2c0,0.1,0.1,0.2,0.2,0.2c0.2,0,0.6,0,0.9,0.1c0.6,0.1,0.9,0.6,1,1.6
	c0.1,0.9,0.1,1.7,0.1,6.1v5c0,2.7,0,5-0.1,6.2c-0.1,0.8-0.3,1.5-0.8,1.6c-0.3,0.1-0.6,0.1-0.9,0.1c-0.2,0-0.2,0.1-0.2,0.2
	c0,0.2,0.1,0.2,0.5,0.2c0.9,0,2.6-0.1,2.8-0.1c0.1,0,1.9,0.1,3.5,0.1c0.3,0,0.5-0.1,0.5-0.2c0-0.1-0.1-0.2-0.2-0.2
	c-0.3,0-0.9-0.1-1.3-0.1c-0.9-0.1-1-0.7-1.1-1.6c-0.1-1.2-0.1-3.4-0.1-6.2V44.9z M135.5,86c0,2.7,0,5-0.1,6.2
	c-0.1,0.8-0.3,1.4-0.8,1.6c-0.3,0.1-0.6,0.1-0.8,0.1c-0.2,0-0.2,0.1-0.2,0.2c0,0.2,0.1,0.2,0.5,0.2c0.9,0,2.6-0.1,2.7-0.1
	c0.1,0,1.9,0.1,3.5,0.1c0.3,0,0.5-0.1,0.5-0.2c0-0.1-0.1-0.2-0.2-0.2c-0.3,0-0.9-0.1-1.3-0.1c-0.9-0.1-1-0.7-1.1-1.6
	c-0.1-1.2-0.1-3.4-0.1-6.2V74.3c0-0.3,0.1-0.5,0.2-0.5c0.3-0.1,0.7-0.2,1.2-0.2c0.7,0,2.4-0.1,3.9,1.4c1.5,1.5,1.6,3.4,1.6,4.4
	c0,2.6-2.2,4.6-4.9,4.6c-0.6,0-0.8,0-0.8,0.3c0,0.1,0.2,0.2,0.3,0.2c0.1,0,0.5,0,0.6,0c4,0,7-2.7,7-6.8c0-1.5-0.8-2.8-1.4-3.4
	c-0.5-0.4-1.7-1.6-5.3-1.6c-1.3,0-3,0.1-3.6,0.1c-0.2,0-1.9-0.1-3.2-0.1c-0.3,0-0.5,0.1-0.5,0.2c0,0.1,0.1,0.2,0.2,0.2
	c0.3,0,0.7,0,1,0.1c0.9,0.2,1.2,0.7,1.2,1.6c0.1,0.9,0.1,1.7,0.1,6.1V86z M172.9,83c0,6.4-4.5,11.6-11.4,11.6c-7.8,0-11-6.1-11-11.2
	c0-4.6,3.4-11.1,11.2-11.1C168.2,72.4,172.9,76.4,172.9,83z M170.2,83.8c0-6.8-4.2-10.5-8.7-10.5c-4.8,0-8.3,3.1-8.3,9.4
	c0,6.6,4,10.9,9.1,10.9C164.9,93.6,170.2,92.1,170.2,83.8z M177.4,83.2c0,6.6,4.2,11.5,12.8,11.5c1.8,0,4-0.2,5.1-0.7
	c0.5-0.2,0.6-0.3,0.7-0.8c0.3-1,0.6-3.4,0.6-3.6c0-0.2-0.1-0.4-0.2-0.4c-0.2,0-0.2,0.1-0.3,0.4c-0.1,0.5-0.5,1.8-1.1,2.4
	c-1.1,1.2-2.8,1.4-5,1.4c-6.1,0-10.3-5-10.3-10.4c0-5,1.8-9.5,9.1-9.5c3.6,0,6.9,1.2,6.9,4.5c0,0.4,0,0.6,0.2,0.6
	c0.2,0,0.3-0.4,0.3-1.8c0-1.7,0.2-3,0.2-3.3c0-0.2-0.1-0.3-0.4-0.3c-1.1,0-3.6-0.8-7-0.8C180.2,72.4,177.4,78.6,177.4,83.2
	 M200.3,83.2c0,6.6,4.2,11.5,12.8,11.5c1.8,0,4-0.2,5.1-0.7c0.5-0.2,0.6-0.3,0.7-0.8c0.3-1,0.6-3.4,0.6-3.6c0-0.2-0.1-0.4-0.2-0.4
	c-0.2,0-0.2,0.1-0.3,0.4c-0.1,0.5-0.5,1.8-1.1,2.4c-1.1,1.2-2.8,1.4-5,1.4c-6.1,0-10.3-5-10.3-10.4c0-5,1.8-9.5,9.1-9.5
	c3.6,0,6.9,1.2,6.9,4.5c0,0.4,0,0.6,0.2,0.6c0.2,0,0.3-0.4,0.3-1.8c0-1.7,0.2-3,0.2-3.3c0-0.2-0.1-0.3-0.4-0.3c-1.1,0-3.6-0.8-7-0.8
	C203.1,72.4,200.3,78.6,200.3,83.2 M226.4,94.1c-0.1,0.9,0.3,1.1,0.7,0.5l0.3-0.5l2.4-3c3.5-4.6,7.3-9.1,11-13.5
	c0.3-0.3,0.4-0.1,0.4,0.2V86c0,2.7,0,5-0.1,6.2c-0.1,0.8-0.3,1.4-0.8,1.6c-0.3,0.1-0.6,0.1-0.9,0.1c-0.2,0-0.2,0.1-0.2,0.2
	c0,0.2,0.1,0.2,0.5,0.2c0.9,0,2.6-0.1,2.8-0.1c0.1,0,1.9,0.1,3.5,0.1c0.3,0,0.5-0.1,0.5-0.2c0-0.1-0.1-0.2-0.2-0.2
	c-0.3,0-0.9-0.1-1.3-0.1c-0.9-0.1-1-0.7-1.1-1.6c-0.1-1.2-0.1-3.4-0.1-6.2v-5v-7.9c0.1-0.9-0.3-1.1-0.7-0.5
	c-5.8,7.5-9.8,12.3-13.9,17c-0.1,0.1-0.3,0.1-0.3-0.1c0-9.4,0-13.8,0.1-14.7c0.1-1,0.3-1.5,1.1-1.6c0.3-0.1,0.5-0.1,0.7-0.1
	c0.1,0,0.2-0.1,0.2-0.2c0-0.2-0.1-0.2-0.5-0.2c-0.9,0-2.6,0.1-2.8,0.1c-0.1,0-1.9-0.1-3.2-0.1c-0.3,0-0.5,0.1-0.5,0.2
	c0,0.1,0.1,0.2,0.2,0.2c0.3,0,0.7,0,1,0.1c0.9,0.2,1.2,0.7,1.2,1.6c0.1,0.9,0,1.7,0.1,6.1V94.1z M253.8,94.1
	c-0.1,0.9,0.3,1.1,0.7,0.5l0.3-0.5c0.9-1.1,1.6-2.1,2.4-3c3.5-4.6,7.3-9.1,11-13.5c0.3-0.3,0.4-0.1,0.4,0.2V86c0,2.7,0,5-0.1,6.2
	c-0.1,0.8-0.3,1.4-0.8,1.6c-0.3,0.1-0.6,0.1-0.9,0.1c-0.2,0-0.2,0.1-0.2,0.2c0,0.2,0.1,0.2,0.5,0.2c0.9,0,2.6-0.1,2.8-0.1
	s1.9,0.1,3.5,0.1c0.3,0,0.5-0.1,0.5-0.2c0-0.1-0.1-0.2-0.2-0.2c-0.3,0-0.9-0.1-1.3-0.1c-0.9-0.1-1-0.7-1.1-1.6
	c-0.1-1.2-0.1-3.4-0.1-6.2v-5v-7.9c0.1-0.9-0.3-1.1-0.7-0.5c-5.8,7.5-9.8,12.3-13.9,17c-0.1,0.1-0.3,0.1-0.3-0.1
	c0-9.4,0-13.8,0.1-14.7c0.1-1,0.3-1.5,1.1-1.6c0.3-0.1,0.5-0.1,0.7-0.1c0.1,0,0.2-0.1,0.2-0.2c0-0.2-0.1-0.2-0.5-0.2
	c-0.9,0-2.6,0.1-2.8,0.1c-0.1,0-1.9-0.1-3.2-0.1c-0.3,0-0.5,0.1-0.5,0.2c0,0.1,0.1,0.2,0.2,0.2c0.3,0,0.7,0,1,0.1
	c0.9,0.2,1.2,0.7,1.2,1.6c0.1,0.9,0,1.7,0.1,6.1V94.1z M277.8,83.2c0,6.6,4.2,11.5,12.8,11.5c1.8,0,4-0.2,5.1-0.7
	c0.5-0.2,0.6-0.3,0.7-0.8c0.3-1,0.6-3.4,0.6-3.6c0-0.2-0.1-0.4-0.2-0.4c-0.2,0-0.2,0.1-0.3,0.4c-0.1,0.5-0.5,1.8-1.1,2.4
	c-1.1,1.2-2.8,1.4-5,1.4c-6.1,0-10.3-5-10.3-10.4c0-5,1.8-9.5,9.1-9.5c3.6,0,6.9,1.2,6.9,4.5c0,0.4,0,0.6,0.2,0.6
	c0.2,0,0.3-0.4,0.3-1.8c0-1.7,0.2-3,0.2-3.3c0-0.2-0.1-0.3-0.4-0.3c-1.1,0-3.6-0.8-7-0.8C280.6,72.4,277.8,78.6,277.8,83.2 M304,86
	c0,2.7,0,5-0.1,6.2c-0.1,0.8-0.3,1.4-0.8,1.6c-0.3,0.1-0.6,0.1-0.9,0.1c-0.2,0-0.2,0.1-0.2,0.2c0,0.2,0.1,0.2,0.5,0.2
	c0.9,0,2.5-0.1,2.7-0.1c0.2,0,1.9,0.1,3.3,0.1c0.3,0,0.5-0.1,0.5-0.2c0-0.1-0.1-0.2-0.2-0.2c-0.3,0-0.7-0.1-1.1-0.1
	c-0.9-0.1-1-0.7-1.1-1.6c-0.1-1.2-0.1-3.4-0.1-6.2v-2.8h0.1c1.4,1.7,7.4,8.2,8.7,9.2c1.2,1,1.9,1.6,3.4,1.7c0.6,0.1,1.2,0.1,2,0.1
	h1.5c0.5,0,0.6-0.1,0.6-0.2c0-0.1-0.2-0.2-0.4-0.2c-0.2,0-1-0.1-1.8-0.4c-1.4-0.6-1.9-1-4.2-3.2c-1.2-1.1-7.1-7.2-7.8-8
	c0.6-0.7,5.6-5.5,6.3-6.2c1.3-1.2,1.9-1.9,3.1-2.4c0.6-0.3,1.2-0.4,1.6-0.4c0.2,0,0.3-0.1,0.3-0.2c0-0.1-0.1-0.2-0.4-0.2
	c-0.7,0-2.6,0.1-2.7,0.1c-0.7,0-1.6-0.1-2.1-0.1c-0.2,0-0.3,0.1-0.3,0.2c0,0.1,0.1,0.2,0.3,0.2c0.2,0.1,0.4,0.3,0.4,0.6
	c0,0.5-0.7,1.2-1.5,2.1c-1,1.1-6.2,6.3-6.7,6.9h-0.1V81c0-4.4,0-5.2,0.1-6.1c0.1-1,0.3-1.5,1.1-1.6c0.3-0.1,0.5-0.1,0.7-0.1
	c0.1,0,0.2-0.1,0.2-0.2c0-0.2-0.1-0.2-0.5-0.2c-0.9,0-2.5,0.1-2.8,0.1c-0.2,0-1.8-0.1-3.1-0.1c-0.3,0-0.5,0.1-0.5,0.2
	c0,0.1,0.1,0.2,0.2,0.2c0.3,0,0.7,0,1,0.1c0.9,0.2,1.2,0.7,1.2,1.6c0.1,0.9,0.1,1.7,0.1,6.1V86z M344.5,83c0,6.4-4.5,11.6-11.4,11.6
	c-7.8,0-11-6.1-11-11.2c0-4.6,3.4-11.1,11.2-11.1C339.7,72.4,344.5,76.4,344.5,83z M341.8,83.8c0-6.8-4.2-10.5-8.7-10.5
	c-4.8,0-8.3,3.1-8.3,9.4c0,6.6,4,10.9,9.1,10.9C336.5,93.6,341.8,92.1,341.8,83.8z M350.6,94.1c-0.1,0.9,0.3,1.1,0.7,0.5l0.3-0.5
	c0.9-1.1,1.6-2.1,2.4-3c3.5-4.6,7.3-9.1,11-13.5c0.3-0.3,0.4-0.1,0.4,0.2V86c0,2.7,0,5-0.1,6.2c-0.1,0.8-0.3,1.4-0.8,1.6
	c-0.3,0.1-0.6,0.1-0.9,0.1c-0.2,0-0.2,0.1-0.2,0.2c0,0.2,0.1,0.2,0.5,0.2c0.9,0,2.6-0.1,2.8-0.1c0.1,0,1.9,0.1,3.5,0.1
	c0.3,0,0.5-0.1,0.5-0.2c0-0.1-0.1-0.2-0.2-0.2c-0.3,0-0.9-0.1-1.3-0.1c-0.9-0.1-1-0.7-1.1-1.6c-0.1-1.2-0.1-3.4-0.1-6.2v-5v-7.9
	c0.1-0.9-0.3-1.1-0.7-0.5c-5.8,7.5-9.8,12.3-13.9,17c-0.1,0.1-0.3,0.1-0.3-0.1c0-9.4,0-13.8,0.1-14.7c0.1-1,0.3-1.5,1.1-1.6
	c0.3-0.1,0.5-0.1,0.7-0.1c0.1,0,0.2-0.1,0.2-0.2c0-0.2-0.1-0.2-0.5-0.2c-0.9,0-2.6,0.1-2.8,0.1c-0.1,0-1.9-0.1-3.2-0.1
	c-0.3,0-0.5,0.1-0.5,0.2c0,0.1,0.1,0.2,0.2,0.2c0.3,0,0.7,0,1,0.1c0.9,0.2,1.2,0.7,1.2,1.6c0.1,0.9,0,1.7,0.1,6.1V94.1z M397,92.1
	L397,92.1c0.1,1.1-0.1,2.3,1.1,2.5c0.4,0.1,1,0.1,1.3,0.1c0.2,0,0.2,0.1,0.2,0.2c0,0.1-0.1,0.2-0.5,0.2c-1.6,0-3.4-0.1-3.5-0.1
	s-1.9,0.1-2.8,0.1c-0.3,0-0.5-0.1-0.5-0.2c0-0.1,0.1-0.2,0.2-0.2c0.3,0,0.6-0.1,0.9-0.1c0.9-0.2,0.7-1.4,0.9-2.4l-0.1-0.1
	c-6.7-0.5-9.8-4.9-9.8-8.8c0-3.5,3-8.4,9.8-8.9l0.1-0.1c-0.1-0.8-0.3-1.7-0.9-1.8c-0.3-0.1-0.7-0.1-0.9-0.1c-0.1,0-0.2-0.1-0.2-0.2
	c0-0.2,0.1-0.2,0.5-0.2c0.9,0,2.7,0.1,2.9,0.1s1.9-0.1,2.8-0.1c0.3,0,0.5,0.1,0.5,0.2c0,0.1-0.1,0.2-0.2,0.2c-0.2,0-0.4,0-0.7,0.1
	c-0.7,0.1-0.9,1-1,1.9l0.1,0.1c5.6,0.4,9.6,3.6,9.6,8.4C406.6,87.6,402.9,91.5,397,92.1z M394.4,76.3l-0.1-0.9
	c0-0.2-0.1-0.2-0.2-0.2c-4.1,0.5-7.1,3.2-7.1,7.8c0,4.6,3.1,7.4,7.1,8.3c0.1,0.1,0.3,0,0.3-0.3c0.1-1.3,0.1-2.9,0.1-5v-5V76.3z
	 M397,91.3c2.2-0.1,7.1-1.7,7.1-7.7c0-4.5-2.9-7.3-6.4-8.2c-0.2-0.1-0.4-0.1-0.6-0.1c-0.2,0.1-0.3,0.1-0.3,0.9l0,0.5V81v5
	c0,2.1,0,3.9,0.1,5.2C396.9,91.2,396.9,91.3,397,91.3z M415.8,74.2c0-0.2,0.1-0.3,0.2-0.3c0.6,0,3.1,0.1,3.3,0.1
	c1.7,0,2.4,0.6,2.5,0.9c0.2,0.4,0.3,0.9,0.3,1.1c0,0.2,0.1,0.3,0.2,0.3c0.1,0,0.2-0.1,0.2-0.3c0.1-0.3,0.1-1.6,0.1-1.9
	c0.1-0.8,0.2-1.1,0.2-1.3c0-0.1-0.1-0.3-0.2-0.3c-0.1,0-0.2,0.1-0.4,0.2c-0.1,0-0.8,0.1-1.2,0.1c-0.5,0-3.4,0.1-6.4,0.1
	c-0.1,0-1.9-0.1-3.2-0.1c-0.3,0-0.5,0.1-0.5,0.2c0,0.1,0.1,0.2,0.2,0.2c0.3,0,0.7,0,1,0.1c0.9,0.2,1.1,0.6,1.2,1.3
	c0.1,0.5,0.1,1.7,0.1,6.5v5c0,3.5-0.1,5.8-0.2,6.5c-0.2,0.8-0.3,1.1-0.8,1.2c-0.3,0.1-0.6,0.1-0.9,0.1c-0.2,0-0.2,0.1-0.2,0.2
	c0,0.2,0.1,0.2,0.5,0.2c0.6,0,2.1-0.1,2.8-0.1c0.8,0,2.7,0.2,7,0.2c1.1,0,1.3,0,1.5-0.7c0.1-0.6,0.4-2.5,0.4-2.8
	c0-0.2,0-0.4-0.2-0.4c-0.1,0-0.2,0.1-0.3,0.4c-0.2,1.2-0.5,1.7-1.3,2.1c-0.7,0.3-2,0.3-2.7,0.3c-2.8,0-3.3-0.5-3.3-2.3v-7.4
	c0-0.1,0.1-0.2,0.2-0.2c0.5,0,3.3,0.1,4.1,0.1c1.1,0.1,1.4,0.6,1.5,1c0.1,0.4,0.1,0.7,0.1,0.9c0,0.1,0.1,0.3,0.2,0.3
	c0.2,0,0.2-0.2,0.2-0.5c0-1.4,0.3-3.3,0.3-3.4c0-0.2-0.1-0.2-0.1-0.2c-0.1,0-0.2,0.1-0.4,0.4c-0.3,0.3-0.7,0.3-1.3,0.4
	c-0.7,0.1-4.2,0.1-4.5,0.1c-0.1,0-0.2-0.1-0.2-0.3V74.2z M450.5,93c-0.2,0.9-0.6,3-0.7,3.3c-0.1,0.3-0.1,0.4-0.3,0.4
	c-0.1,0-0.2-0.1-0.2-0.5v-0.3c0-0.9-0.1-1.8-2.4-1.8l-4.3,0h-7.6l-4.9,0c-1.9,0-2.1,0.3-2.3,1c-0.1,0.5-0.1,1-0.1,1.3
	c0,0.2-0.1,0.3-0.2,0.3c-0.1,0-0.2-0.1-0.2-0.3c-0.1-0.3-0.6-3.1-0.6-3.3c0-0.2,0-0.5,0.1-0.5c0.2,0,0.7,0.4,1.4,0.3
	c1.5,0,2-0.7,2.5-2l7-17.8c0.3-0.9,0.5-1.1,0.7-1.1c0.2,0,0.3,0.1,0.7,1c0.5,1.1,5.2,12.9,6.9,17.2c0.3,0.7,0.7,1.3,1.1,1.9
	c0.7,0.6,1.5,0.7,1.8,0.7c0.9-0.1,1.4-0.2,1.5-0.2C450.5,92.7,450.5,92.9,450.5,93z M444.4,93C444.4,92.9,444.3,92.9,444.4,93
	L438,76.7c-0.1-0.4-0.5-0.4-0.6,0l-5,14.2c-0.3,0.7-0.4,1.4-0.4,1.9V93C435.2,93.2,439.4,93.1,444.4,93z M458.1,74.2
	c0-0.2,0.1-0.3,0.2-0.3c0.6,0,3.1,0.1,3.3,0.1c1.7,0,2.4,0.6,2.5,0.9c0.2,0.4,0.3,0.9,0.3,1.1c0,0.2,0.1,0.3,0.2,0.3
	c0.1,0,0.2-0.1,0.2-0.3c0.1-0.3,0.1-1.6,0.1-1.9c0.1-0.8,0.2-1.1,0.2-1.3c0-0.1-0.1-0.3-0.2-0.3c-0.1,0-0.2,0.1-0.4,0.2
	c-0.1,0-0.8,0.1-1.3,0.1c-0.5,0-3.4,0.1-6.4,0.1c-0.1,0-1.9-0.1-3.2-0.1c-0.3,0-0.5,0.1-0.5,0.2c0,0.1,0.1,0.2,0.2,0.2
	c0.3,0,0.7,0,1,0.1c0.9,0.2,1.1,0.6,1.2,1.3c0.1,0.5,0.1,1.7,0.1,6.5v5c0,3.5-0.1,5.8-0.2,6.5c-0.2,0.8-0.3,1.1-0.8,1.2
	c-0.3,0.1-0.6,0.1-0.9,0.1c-0.2,0-0.2,0.1-0.2,0.2c0,0.2,0.1,0.2,0.5,0.2c0.6,0,2.1-0.1,2.8-0.1c0.8,0,2.7,0.2,7,0.2
	c1.1,0,1.3,0,1.5-0.7c0.1-0.6,0.4-2.5,0.4-2.8c0-0.2,0-0.4-0.2-0.4c-0.1,0-0.2,0.1-0.3,0.4c-0.2,1.2-0.5,1.7-1.3,2.1
	c-0.7,0.3-2,0.3-2.7,0.3c-2.8,0-3.3-0.5-3.3-2.3v-7.4c0-0.1,0.1-0.2,0.2-0.2c0.5,0,3.3,0.1,4.1,0.1c1.1,0.1,1.4,0.6,1.5,1
	c0.1,0.4,0.1,0.7,0.1,0.9c0,0.1,0.1,0.3,0.2,0.3c0.2,0,0.2-0.2,0.2-0.5c0-1.4,0.3-3.3,0.3-3.4c0-0.2-0.1-0.2-0.1-0.2
	c-0.1,0-0.2,0.1-0.4,0.4c-0.3,0.3-0.7,0.3-1.3,0.4c-0.7,0.1-4.2,0.1-4.5,0.1c-0.1,0-0.2-0.1-0.2-0.3V74.2z M474.6,86
	c0,2.7,0,5-0.1,6.2c-0.1,0.8-0.3,1.4-0.8,1.6c-0.3,0.1-0.6,0.1-0.9,0.1c-0.2,0-0.2,0.1-0.2,0.2c0,0.2,0.1,0.2,0.5,0.2
	c0.9,0,2.6-0.1,2.7-0.1c0.1,0,1.9,0.1,3.5,0.1c0.3,0,0.5-0.1,0.5-0.2c0-0.1-0.1-0.2-0.2-0.2c-0.3,0-0.9-0.1-1.3-0.1
	c-0.9-0.1-1-0.7-1.1-1.6C477,91,477,88.8,477,86V74.3c0-0.3,0.1-0.5,0.2-0.5c0.3-0.1,0.7-0.2,1.2-0.2c0.7,0,2.4-0.1,3.9,1.4
	c1.5,1.5,1.6,3.4,1.6,4.4c0,2.6-2.2,4.6-4.9,4.6c-0.6,0-0.8,0-0.8,0.3c0,0.1,0.2,0.2,0.3,0.2c0.1,0,0.5,0,0.6,0c4,0,7-2.7,7-6.8
	c0-1.5-0.8-2.8-1.4-3.4c-0.5-0.4-1.7-1.6-5.3-1.6c-1.3,0-3,0.1-3.6,0.1c-0.2,0-1.9-0.1-3.2-0.1c-0.3,0-0.5,0.1-0.5,0.2
	c0,0.1,0.1,0.2,0.2,0.2c0.3,0,0.7,0,1,0.1c0.9,0.2,1.2,0.7,1.2,1.6c0.1,0.9,0.1,1.7,0.1,6.1V86z M507.9,94.1c0,0.2-0.3,0.2-0.6,0.2
	c-0.4,0-2.5,0-4.5-0.1c-0.5,0-0.9,0-0.9-0.2c0-0.1,0.1-0.2,0.2-0.2c0.1,0,0.2-0.1,0.2-0.4c0-0.1,0-0.3-0.1-0.4l-2.6-7
	c-0.1-0.1-0.1-0.2-0.3-0.2h-6.1c-0.1,0-0.2,0.1-0.3,0.2l-1.7,5c-0.3,0.7-0.4,1.4-0.4,1.9c0,0.6,0.6,0.8,1.1,0.8h0.3
	c0.2,0,0.3,0.1,0.3,0.2c0,0.2-0.2,0.2-0.4,0.2c-0.7,0-1.9-0.1-2.2-0.1s-1.9,0.1-3.2,0.1c-0.4,0-0.5-0.1-0.5-0.2
	c0-0.1,0.1-0.2,0.3-0.2c0.2,0,0.6,0,0.8-0.1c1.3-0.2,1.9-1.3,2.4-2.7l6.5-17.7c0.3-0.9,0.5-1.1,0.6-1.1c0.2,0,0.3,0.1,0.6,1
	c0.4,1.1,4.9,12.8,6.6,17.2c1,2.5,1.8,3,2.4,3.2c0.4,0.1,0.9,0.2,1.1,0.2C507.8,93.9,507.9,93.9,507.9,94.1z M499.3,84.7l-2.7-7.7
	c-0.1-0.2-0.1-0.3-0.2-0.3c-0.1,0-0.1,0.1-0.2,0.3l-2.5,7.7c-0.1,0.1,0,0.2,0.1,0.2h5.4C499.3,84.9,499.3,84.8,499.3,84.7z
	 M526.7,92.2c-0.1,0.4-0.1,0.7-0.2,1c-3.9,0.2-7.8,0.3-11.7,0c-0.1-0.3-0.2-0.6-0.2-1c-0.1-1.2-0.1-3.4-0.1-6.2
	c0-9.5,0-10.2,0.1-11.2c0.1-1,0.3-1.5,1.1-1.6c0.3-0.1,0.5-0.1,0.7-0.1c0.1,0,0.2-0.1,0.2-0.2c0-0.2-0.1-0.2-0.5-0.2
	c-0.9,0-2.6,0.1-2.8,0.1c-0.1,0-1.9-0.1-3.2-0.1c-0.3,0-0.5,0.1-0.5,0.2c0,0.1,0.1,0.2,0.2,0.2c0.3,0,0.7,0,1,0.1
	c0.9,0.2,1.2,0.7,1.2,1.6c0.1,0.9,0.1,1.7,0.1,6.1v5c0,2.7,0,5-0.1,6.2c-0.1,0.8-0.3,1.4-0.8,1.6c-0.3,0.1-0.6,0.1-0.9,0.1
	c-0.2,0-0.2,0.1-0.2,0.2c0,0.2,0.1,0.2,0.5,0.2c0.9,0,2.6-0.1,2.8-0.1c0.1,0,1.2,0.1,2.4,0.1H526c0.9,0,1.9-0.1,2-0.1h1.4
	c2.3,0,2.2,1,2.2,1.9v0.3c0,0.4,0.1,0.5,0.2,0.5c0.2,0,0.2-0.1,0.3-0.4c0.1-0.3,0.5-2.4,0.6-3.3c0-0.2,0.1-0.3-0.1-0.3
	c-0.2,0-0.6,0.2-1.5,0.2c-0.4,0-1.9,0.5-1.9-1.8c-0.1-1.3-0.1-3.1-0.1-5.3v-5c0-4.4,0-5.2,0.1-6.1c0.1-1,0.3-1.5,1.1-1.6
	c0.3-0.1,0.5-0.1,0.7-0.1c0.1,0,0.2-0.1,0.2-0.2c0-0.2-0.1-0.2-0.5-0.2c-0.9,0-2.6,0.1-2.8,0.1c-0.1,0-1.9-0.1-3.2-0.1
	c-0.3,0-0.5,0.1-0.5,0.2c0,0.1,0.1,0.2,0.2,0.2c0.3,0,0.7,0,1,0.1c0.9,0.2,1.2,0.7,1.2,1.6c0.1,0.9,0.1,1.7,0.1,6.1v5
	C526.8,88.8,526.8,91,526.7,92.2 M539.3,94.1c-0.1,0.9,0.3,1.1,0.7,0.5l0.3-0.5l2.4-3c3.5-4.6,7.3-9.1,11-13.5
	c0.3-0.3,0.4-0.1,0.4,0.2V86c0,2.7,0,5-0.1,6.2c-0.1,0.8-0.3,1.4-0.8,1.6c-0.3,0.1-0.6,0.1-0.9,0.1c-0.2,0-0.2,0.1-0.2,0.2
	c0,0.2,0.1,0.2,0.5,0.2c0.9,0,2.6-0.1,2.8-0.1c0.1,0,1.9,0.1,3.5,0.1c0.3,0,0.5-0.1,0.5-0.2c0-0.1-0.1-0.2-0.2-0.2
	c-0.3,0-0.9-0.1-1.3-0.1c-0.9-0.1-1-0.7-1.1-1.6c-0.1-1.2-0.1-3.4-0.1-6.2v-5v-7.9c0.1-0.9-0.3-1.1-0.7-0.5
	C550,80.3,546,85,542,89.7c-0.1,0.1-0.3,0.1-0.3-0.1c0-9.4,0-13.8,0.1-14.7c0.1-1,0.3-1.5,1.1-1.6c0.3-0.1,0.5-0.1,0.7-0.1
	c0.1,0,0.2-0.1,0.2-0.2c0-0.2-0.1-0.2-0.5-0.2c-0.8,0-2.6,0.1-2.8,0.1c-0.1,0-1.9-0.1-3.2-0.1c-0.3,0-0.5,0.1-0.5,0.2
	c0,0.1,0.1,0.2,0.2,0.2c0.3,0,0.7,0,1,0.1c0.9,0.2,1.2,0.7,1.2,1.6c0.1,0.9,0,1.7,0.1,6.1V94.1z M566.8,94.1
	c-0.1,0.9,0.3,1.1,0.7,0.5l0.3-0.5l2.4-3c3.5-4.6,7.3-9.1,11-13.5c0.3-0.3,0.4-0.1,0.4,0.2V86c0,2.7,0,5-0.1,6.2
	c-0.1,0.8-0.3,1.4-0.8,1.6c-0.3,0.1-0.6,0.1-0.9,0.1c-0.2,0-0.2,0.1-0.2,0.2c0,0.2,0.1,0.2,0.5,0.2c0.9,0,2.6-0.1,2.8-0.1
	c0.1,0,1.9,0.1,3.5,0.1c0.3,0,0.5-0.1,0.5-0.2c0-0.1-0.1-0.2-0.2-0.2c-0.3,0-0.9-0.1-1.3-0.1c-0.9-0.1-1-0.7-1.1-1.6
	C584,91,584,88.8,584,86v-5v-7.9c0.1-0.9-0.3-1.1-0.7-0.5c-5.8,7.5-9.8,12.3-13.9,17c-0.1,0.1-0.3,0.1-0.3-0.1
	c0-9.4,0-13.8,0.1-14.7c0.1-1,0.3-1.5,1.1-1.6c0.3-0.1,0.5-0.1,0.7-0.1c0.1,0,0.2-0.1,0.2-0.2c0-0.2-0.1-0.2-0.5-0.2
	c-0.9,0-2.7,0.1-2.8,0.1c-0.1,0-1.9-0.1-3.2-0.1c-0.3,0-0.5,0.1-0.5,0.2c0,0.1,0.1,0.2,0.2,0.2c0.3,0,0.7,0,1,0.1
	c0.9,0.2,1.2,0.7,1.2,1.6c0.1,0.9,0,1.7,0.1,6.1V94.1z M267.5,68c0.3-0.4,0.3-0.7,0.1-0.8c-0.2-0.1-0.4,0.1-0.8,0.5
	c-1.2,1.2-2.4,1.4-2.9,1.4c-0.3,0-1.9,0.1-2.1-1.9c-0.1-0.8,0.2-1.3-0.4-1.3c-0.8,0-1.4,1.2-1.4,2c0,1.1,1.1,2.2,3.4,2.2
	C264.9,70.1,266.6,69.2,267.5,68z M363.7,68c0.3-0.4,0.3-0.7,0.1-0.8c-0.2-0.1-0.4,0.1-0.8,0.5c-1.2,1.2-2.4,1.4-2.9,1.4
	c-0.3,0-1.9,0.1-2.1-1.9c-0.1-0.8,0.2-1.3-0.4-1.3c-0.8,0-1.4,1.2-1.4,2c0,1.1,1.1,2.2,3.4,2.2C361.1,70.1,362.8,69.2,363.7,68z"/>
<path class="st0" d="M37.2,64l1-2.1l-0.6-0.3l-1.4,1.8l0.2,0.8L37.2,64z M42.1,64.6l0-2.1l-0.7-0.1l-0.5,2l0.5,0.6L42.1,64.6z
	 M82.5,65l0.5-0.6l-0.5-2l-0.7,0.1l0,2.1L82.5,65z M87.6,64.1l0.2-0.8l-1.4-1.8l-0.6,0.3l1,2.1L87.6,64.1z M90.8,60.8l-0.2-0.8
	l-2.1-0.9l-0.3,0.7l1.9,1.3L90.8,60.8z M33,51.1l0.2,0.8l2.2,0.8l0.3-0.6l-2-1.2L33,51.1z M35,55.6l-2.3-0.3l-0.6,0.5l0.5,0.7
	l2.3-0.2L35,55.6z M33.6,60.1l-0.2,0.8l0.8,0.3l1.9-1.3l-0.3-0.7L33.6,60.1z M90.9,51.9l0.2-0.8l-0.8-0.2l-2,1.2l0.3,0.6L90.9,51.9z
	 M116.4,52.9c0,0-1.3-0.7-2.2-0.8c-1.1-0.2-1.8-0.2-2.7-0.2c0.6-0.2,1.3-0.5,1.8-0.8c2.9-1.7,3.2-5.1,3.2-5.1s-1.7-0.2-2.7-0.2
	c-1.6,0-2.8,0.1-3.2,0.2c1.2-0.6,1.8-1,2.6-1.8c2.2-2.2,1.9-5.3,1.9-5.3s-0.8-0.3-2.1-0.2c-1.1,0.1-1.4,0.2-1.9,0.5
	c1.9-2.2,2.2-3.5,2.4-5c0.3-2.2-0.5-3.8-0.6-3.9c0,0-0.9,0.2-2.2,1.2c-1.4,1.1-3.4,3-3.4,3s0.5-0.6,1.1-1.8
	c2.5-5.1,2.2-9.1,1.6-10.3c-0.7-1.3-2.1-1.4-2.7-0.4c-0.5,0.7-1.9,3.8-3.1,6c-1.8,3.5-4.2,6.8-5.2,8c-0.5-1.2-1.1-0.3-1.1-0.3
	s-0.8,1.4-1.7,2.9c-0.9,1.4-1.9,2.5-2.6,3.1c-0.8-1-1.7-1.4-1.7-1.4l-0.3,0.3c0,0-6,6.2-7.8,8.7c-1.8,2.4-0.5,3.6,0.9,5.5
	c1.3,2,0.8,4.3-2,5.4c-2.4,0.9-4.1,0.1-4.7-1.1c1.8-0.7,3.5-2.5,3.5-4.9c0-0.4,0-0.8-0.1-1.3c-0.6-2.7-2.7-4.2-5.1-4.2
	c-0.8,0-1.7,0.2-2.5,0.6c-0.5,0.2-0.8,0.4-1.2,0.8c0,0-0.1,0.1-0.2,0.2c-1.1-2-1-3.6,0.3-6.3c1.5-2.8,4-4.1,4-4.1l0.6,0.5
	c0,0,0-0.2,1.2-0.8c1.2-0.6,2.5-0.4,3.5,0.7c0.9,1,0.8,2.3,0.8,2.3s0.8-0.7,1.1-1.6c0.3-0.9-0.1-1.6-0.1-1.6s1,0.4,2.1,0.8
	c1,0.4,2.8,1,4.4-0.3c1.6-1.4,1.3-3.3,1.3-3.3s-0.9,1.4-2.7,1.7c-1.3,0.3-2.8-0.5-3.9-1c-1.1-0.4-2.5-0.7-2.5-0.7s1.3-1.1,3.5-0.4
	c1.6,0.5,1.8,1.1,1.8,1.1s0.9-0.6,1.4-1.8c0.6-1.3,0.2-2.5-0.8-3.4c-0.9-0.9-2.9-1.4-2.9-1.4s0.3-0.5-0.3-0.7
	c-0.6-0.2-1.1-0.3-1.1-0.3s0.5-1.5-1.1-2.2c-2.5-1.1-6.5,1-10.9,1.6c-2.9,0.4-4.2-0.5-4.2-0.5s0.2,0.7,0.8,1.3
	c1.1,1.1,1.9,1.5,1.9,1.5s-0.9,0.1-1.6,0.1c-0.7-0.1-2-0.4-2-0.4s0.4,0.7,1.2,1.2c0.8,0.6,1.6,0.9,1.6,0.9s-1.6,0.8-3,1.2
	c-1.3,0.4-3.6,0.5-3.6,0.5s0.7,0.7,1.8,1.1c1.1,0.4,1.5,0.5,1.5,0.5s-0.9,1.2-1.9,3.1c-0.7,1.3-1.8,3.9-2.4,5.3
	c-0.6-1.4-1.7-4-2.4-5.3c-1-1.9-1.9-3.1-1.9-3.1s0.5,0,1.5-0.5c1.1-0.4,1.8-1.1,1.8-1.1s-2.2,0-3.6-0.5c-1.3-0.4-2.9-1.2-2.9-1.2
	s0.8-0.4,1.6-0.9c0.8-0.6,1.2-1.2,1.2-1.2s-1.3,0.3-2,0.4c-0.7,0.1-1.6-0.1-1.6-0.1s0.8-0.4,1.9-1.5c0.6-0.6,0.8-1.3,0.8-1.3
	s-1.3,0.9-4.2,0.5c-4.4-0.6-8.3-2.7-10.9-1.6c-1.5,0.7-1.1,2.2-1.1,2.2s-0.6,0.2-1.1,0.3c-0.7,0.2-0.3,0.7-0.3,0.7s-1.9,0.5-2.9,1.4
	c-1,0.9-1.3,2.1-0.8,3.4c0.5,1.2,1.4,1.8,1.4,1.8s0.2-0.6,1.8-1.1c2.2-0.7,3.5,0.4,3.5,0.4s-1.4,0.2-2.5,0.7c-1.1,0.5-2.5,1.2-3.9,1
	c-1.8-0.4-2.7-1.7-2.7-1.7s-0.3,1.9,1.3,3.3c1.6,1.4,3.4,0.7,4.4,0.3c1.1-0.4,2.1-0.8,2.1-0.8s-0.3,0.7-0.1,1.6
	c0.3,0.9,1.1,1.6,1.1,1.6s-0.1-1.3,0.8-2.3c1-1.1,2.2-1.3,3.5-0.7c1.2,0.6,1.2,0.8,1.2,0.8l0.6-0.5c0,0,2.5,1.3,4,4.1
	c1.4,2.7,1.5,4.2,0.4,6.2c0,0-0.1-0.1-0.1-0.1c-0.4-0.3-0.9-0.5-1.4-0.8c-0.8-0.4-1.7-0.6-2.5-0.6c-2.4,0-4.6,1.6-5.1,4.2
	c-0.1,0.4-0.1,0.9-0.1,1.3c0,2.6,1.7,4.3,3.6,4.9c-0.7,1.2-2.3,2-4.7,1.1c-2.8-1.1-3.3-3.4-2-5.4c1.3-2,2.7-3.1,0.9-5.5
	c-1.8-2.4-7.8-8.7-7.8-8.7l-0.3-0.3c0,0-0.8,0.4-1.7,1.4c-0.6-0.6-1.7-1.6-2.6-3.1c-0.9-1.5-1.7-2.9-1.7-2.9s-0.5-0.8-1.1,0.3
	c-1-1.2-3.4-4.5-5.2-8c-1.2-2.2-2.6-5.3-3.1-6c-0.6-1-2-0.9-2.7,0.4c-0.7,1.2-0.9,5.2,1.6,10.3c0.6,1.2,1.1,1.8,1.1,1.8
	s-2-1.9-3.4-3c-1.3-1-2.2-1.2-2.2-1.2c-0.2,0.1-1,1.7-0.6,3.9c0.2,1.4,0.5,2.8,2.4,5c-0.5-0.3-0.9-0.4-1.9-0.5
	C9.8,38.6,9,38.9,9,38.9s-0.3,3.2,1.9,5.3c0.9,0.8,1.4,1.2,2.6,1.8c-0.4-0.1-1.6-0.2-3.2-0.2c-1,0-2.7,0.2-2.7,0.2S8,49.3,10.9,51
	c0.5,0.3,1.1,0.6,1.8,0.8c-0.8,0-1.5,0-2.7,0.2c-0.9,0.2-2.2,0.8-2.2,0.8s1.1,3,4.1,4.1c0.5,0.2,0.8,0.4,1.4,0.4
	c-0.3,0-1.3,0.4-2.6,1c-0.9,0.4-1.8,1.3-1.8,1.3s1.5,2.7,4.2,3.2c0,0,0.2,0,0.5,0.1c-0.5,0.3-1.3,0.9-2,1.6c-0.7,0.7-1.4,2-1.4,2
	s2.3,2.4,5.6,2c-0.3,0.3-0.5,0.7-0.8,1.1c-0.7,1.2-0.9,2.7-0.9,2.7s2.5,1.4,5.3,0.5c-0.2,0.3-0.3,0.6-0.4,1
	c-0.2,0.9-0.3,2.8-0.3,2.8s3.1,0.9,5.7-1c-0.2,0.4-0.3,0.9-0.4,1.5c-0.1,0.9,0.1,2.8,0.1,2.8s3.3,0.4,5.6-2c0.1-0.1,0.1-0.1,0.2-0.2
	c0,0.3-0.1,0.5,0,0.8c0,1,0.5,2.8,0.5,2.8s3.3-0.1,5.3-2.8c0.2-0.3,0.3-0.5,0.5-0.8c0,0.4,0.1,1.2,0.4,1.9c0.3,0.8,1,1.8,1,1.8
	s2.7-0.8,3.7-3.6c0.4-1.2,0.6-2.8,0.6-4.2c0.2,0.2,0.3,0.3,0.3,0.3s0.9-0.2,1.8-1.1C43.4,75,43,77.4,43,79.9c0,0.6,0,1.2,0.1,1.9
	c0.1,1.4,0.2,2.1,0.5,3.1c0,0-0.5,0.9-0.9,1.5c-0.2,0.2-0.9,0.9-0.8,2.1c0.1,0.9,1,1,1,1s-0.1,1,0.3,1.5c0.4,0.5,0.9,0.7,1.1,0.7
	c0.2,0.1,0.8,0.2,0.8,0.2s0.2,1.1,0.5,1.4c0.5,0.3,1.6,0.7,1.6,0.7c0.3,0.1,0.8,0.5,1.1,0.6c0.5,0.3,1.3,0.1,2-0.2
	c0.5-0.3,0.5-1,0.5-1.2c0.2,0.1,0.3,0.1,0.5,0.2c0.8,0.3,1.3,0.6,1.4,0.8c0.4,0.6,0.6,2,0.7,3.1c0.1,0.4,0,1.1,0.3,1.7
	c0,0,0.1,0.1,0.1,0.1c-0.1,0-0.1,0.1-0.2,0.1c-0.8,0.3-1.7,0.7-2.7,1.4c-1,0.7-2.1,2.6-3.6,2.9c-1.3,0.3-2.2-0.3-2.4-1.1
	c-0.1-0.8-0.1-1.2-0.1-1.2s-1.8,1-1.9,2.3c-0.2,1.6,1.3,2.3,1.3,2.3s-2.3,2.2-1.6,4.2c0.6,1.7,1.1,2.4,1.2,3c0.1,0.6-0.2,1-0.2,1
	s1.2,0.1,1.5-1.5c0.2-1,0.4-1.5,0.7-1.8c0.2-0.3,0.3-0.4,0.3-0.4s-0.1,1.4,0.2,2.5c0.4,1.1,1.6,2.2,3.4,2.3c1.6,0.1,3.1-0.8,3.1-0.8
	s1.3,1.8,3.2,2.1c1.9,0.3,3.1-0.2,3.7-0.3c0,0,0.5,0.9,1,1.5c0.2,0.3,0.6,0.7,1.1,1.2l0.6,0.3c0,0,0.7-0.7,1.2-1.3
	c0.5-0.6,1.1-2,1.1-2s2.1,0.8,3.9,0.4c1.8-0.4,3.1-1.7,3.1-1.7s1.1,1.2,2.9,1.1c1.8-0.1,3-1.7,3.4-2.8c0.3-1.1,0.2-2.5,0.2-2.5
	s0.1,0.1,0.4,0.3c0.3,0.2,0.5,0.4,0.7,1.5c0.3,1.6,1.2,1.7,1.2,1.7s-0.1-0.8,0.2-1.6c0.2-0.6,0.8-1.3,1.2-2.8
	c0.7-2.7-1.6-3.8-1.6-3.8s1.3-0.7,1.2-2.2c-0.1-1.9-2.1-2.5-2.1-2.5s0.2,0.2,0,1c-0.1,0.8-0.9,1.6-2.4,1.2c-0.8-0.2-2.3-2-3.3-2.7
	c-1-0.7-2.4-1.3-2.9-1.6c0,0-0.1,0-0.2-0.1c0,0,0,0,0-0.1c0.3-0.6,0.3-1.2,0.3-1.7c0.1-0.9,0.3-2.1,0.6-2.8c0.2-0.4,0.8-0.7,1.5-1
	c0.2-0.1,0.2-0.1,0.5-0.2c0,0.2,0.1,0.9,0.5,1.2c0.7,0.4,1.4,0.5,2,0.2c0.3-0.2,0.9-0.5,1.1-0.6c0,0,1.2-0.3,1.6-0.7
	c0.4-0.3,0.5-1.4,0.5-1.4s0.6-0.1,0.8-0.2c0.2-0.1,0.7-0.3,1.1-0.7c0.4-0.5,0.3-1.5,0.3-1.5s0.9-0.1,1-1c0.1-1.2-0.6-1.9-0.8-2.1
	c-0.5-0.6-0.9-1.5-0.9-1.5c0.3-1.1,0.4-1.7,0.5-3.1c0.1-0.6,0.1-1.2,0.1-1.9c0-2.5-0.4-4.9-1.1-7.1c0.9,0.9,1.8,1.1,1.8,1.1
	s0.1-0.1,0.3-0.3c0,1.4,0.2,3,0.6,4.2c1,2.7,3.7,3.6,3.7,3.6s0.7-1.1,1-1.8c0.2-0.7,0.4-1.5,0.4-1.9c0.2,0.3,0.3,0.5,0.5,0.8
	c2,2.7,5.3,2.8,5.3,2.8s0.5-1.8,0.5-2.8c0-0.3,0-0.6,0-0.8c0.1,0.1,0.1,0.1,0.2,0.2c2.3,2.4,5.6,2,5.6,2s0.2-1.9,0.1-2.8
	c-0.1-0.7-0.2-1.2-0.4-1.5c2.7,1.9,5.7,1,5.7,1s0-1.9-0.3-2.8c-0.1-0.4-0.3-0.7-0.4-1c2.8,0.9,5.3-0.5,5.3-0.5s-0.2-1.5-0.9-2.7
	c-0.3-0.5-0.5-0.8-0.8-1.1c3.3,0.4,5.6-2,5.6-2s-0.7-1.3-1.4-2c-0.7-0.7-1.6-1.3-2-1.6c0.2,0,0.4-0.1,0.5-0.1
	c2.7-0.5,4.2-3.2,4.2-3.2s-1-0.9-1.8-1.3c-1.2-0.6-2.3-0.9-2.5-1c0.6-0.1,0.9-0.2,1.4-0.4C115.2,55.9,116.4,52.9,116.4,52.9
	 M112.7,46.8c1.3,0,2,0.2,2.2,0.2c-1.2,1.4-2.4,2.5-5.9,3.5c-4.5,1.3-7.2,1.2-8.2,1.3c2.3-1.5,2.9-2.5,2.9-2.5s0-0.2-0.9-0.5
	c0.8-0.2,2.3-0.6,3.4-1c0.8-0.3,1.3-0.4,2.1-0.8C108.7,47,111.2,46.8,112.7,46.8 M86.3,66.7c0.1,0.6,0.7,1.8,1.1,2.4
	c-0.1,0.3-0.2,0.8-0.4,1.3c-0.4,0.7-0.8,1-0.8,1s-1.4-0.3-2.1-1.7c-0.5-0.9-0.5-2-0.5-2.7c0.3-0.2,0.5-0.5,0.7-0.6
	c0.4-0.4,0.7-1.2,0.7-1.2s0.4,0.3,1.2,0.5C86.1,65.9,86.2,66.3,86.3,66.7C86.3,66.7,86.3,66.7,86.3,66.7
	C86.3,66.7,86.3,66.7,86.3,66.7 M87.1,66c0.6,0.2,1,0.3,1.3,0.3c0.2-0.1,0.5-0.5,0.6-0.6c0.4,0.4,0.6,0.9,2.5,2.1
	c0,0.2,0.1,0.9,0,1.6c-0.1,0.8-0.2,1.3-0.2,1.3s-1.3-0.2-2.4-1.3C87.6,67.9,87.3,66.6,87.1,66 M89.6,65c0.1-0.1,0.1-0.2,0.2-0.3
	c0.5-1,0.4-1.8,0.4-1.8s2.3,1.4,4.3,1.9c0.1,0.3,0.3,0.8,0.4,1.4c0.2,0.9,0.1,1.3,0.1,1.3s-1.2-0.1-2.9-0.8
	C90.3,65.9,90,65.3,89.6,65 M93.3,63.2C93,63,92.3,62.7,92,62.6c1-0.4,1.6-1,1.6-1s0-0.3-0.2-0.5c0.7,0.1,1.3,0.3,2.6,0.2
	c0,0,0.3,0,0.3,0c0.2,0.2,1.1,0.6,1.7,1.2c0.7,0.7,0.9,1.3,1,1.6C97.6,64.1,95.5,64,93.3,63.2 M95.9,59.9c-1.6,0-2.4-0.2-3.2-0.3
	c-0.2-0.2-0.4-0.5-0.8-0.8c0.2-0.1,0.8-0.4,1.1-0.8c1.1,0.1,3.6,0.1,5.7-0.6c0.1,0,0.2-0.1,0.3-0.1c0.3,0.1,0.7,0.3,1.1,0.5
	c0.9,0.4,1.4,0.9,1.6,1.2C101,59.4,98.2,60,95.9,59.9 M96.6,56.6c-1.1,0.1-2.2,0.2-2.7,0c0,0,0.2-0.3,0.4-0.8
	c-0.1-0.4-0.6-0.8-1.4-1.4c-0.1,0-0.1-0.1-0.2-0.1c0.8-0.1,2.9-0.3,4.8-0.8c0.2,0,0.8,0,1.9,0.5c1.5,0.6,1.9,1,2.1,1.2
	C100.7,55.4,99,56.3,96.6,56.6 M97.2,51.9c-2.7,0.7-4.1,0.8-4.7,0.8c0.2-0.3,0.6-0.8,0.9-1.6c1-0.4,3.3-1.3,5-2.5
	c0.3,0,0.9,0,1.7,0.1c1.3,0.1,2,0.5,2.3,0.7C101.5,50.4,99.5,51.3,97.2,51.9 M112.3,39.7c1.2-0.2,1.7,0,1.9,0
	c-0.7,1.2-2.4,3.2-6.2,5.3c-3.6,2-5.7,2.7-6.6,3c-1-0.2-2-0.2-2-0.2c0.7-0.7,1.3-1.4,1.7-2c1.3-0.5,5.6-2.3,8.9-5.5
	c0,0,0.1-0.1,0.2-0.1C110.6,40,111.6,39.7,112.3,39.7 M99.2,36.9c0,0,1.7-2,3.4-4.7c1.5-2.4,3.5-6.6,4.8-9.2
	c0.6-1.2,1.9-0.7,1.9,1.2c0,2.7-2.1,7.2-3.8,9.5c-3.5,4.4-5.1,5.4-6.5,6.3C99,39.7,99.5,38.4,99.2,36.9 M105,37.3
	c0.8-0.8,3.9-3.1,5.9-4.9c0.8-0.8,1.8-1.2,1.8-1.2c0.2,1.5-0.6,3.4-1.4,4.6c-1.1,1.8-2.9,3.6-4.3,4.5c-4.1,2.9-4.4,2.9-5.1,3.3
	c-0.1,0-2.1-0.8-4.3,0c0.2-0.2,0.2-0.4,0.2-0.4S101.8,40.6,105,37.3 M95.8,40.2c1-1.4,1.6-2.5,1.8-2.9c0.5-1,1-0.8,1,0.2
	c0,1.8-0.9,3.6-2.1,5.1c-1.1,1.3-2.1,1.9-2.6,2.2c0.1-0.3,0.4-1.6-0.1-2.6C94.2,41.9,95,41.2,95.8,40.2 M96.9,44.5
	c0.3-0.1,0.9-0.2,1.7-0.3c1.3-0.2,2.2,0,2.6,0.2c-0.7,0.7-2.6,2.3-4.7,3.5c-1.9,1-3.2,1.6-3.9,1.9c-1-0.4-1.9-0.5-1.9-0.5
	s0.5-0.5,1.5-1.4C93.1,47.4,95,46.6,96.9,44.5 M79.2,61.2c3.4,0.7,5.7-1.1,6.6-2.5c0.8-1.4,0.7-3-0.7-5c-1.4-2-2.2-2.5,1.6-6.7
	c3.9-4.3,5.4-5.4,5.4-5.4s1.5,0.5,1.3,2.6c-0.1,1.4-2.4,3.6-3.1,4.4c-0.7,0.7-1.3,1.4-1.3,1.4s1,0,2.2,0.2c0.9,0.2,1.4,0.5,1.4,0.5
	s-0.3,1.3-0.7,1.8c-0.4,0.5-1.2,1.3-1.2,1.3s1,0.4,1.7,1.1c0.6,0.6,1,1.1,1,1.1s-0.4,1.1-1.1,1.7c-0.7,0.6-1.8,1.1-1.8,1.1
	s1,0.6,1.5,1.4c0.4,0.5,0.5,1.1,0.5,1.1s-0.6,0.5-1.5,0.7c-0.4,0.1-0.8,0.2-1.1,0.2c0,0,0,0,0,0l0,0c-0.3,0-0.6,0-0.6,0
	s0,1.2-0.3,1.9c-0.3,0.8-1,1.2-1,1.2s-1.4-0.1-1.9-0.4c-0.7-0.4-1.4-1-1.4-1s-0.6,1.2-1,1.6c-0.5,0.5-1,0.7-1,0.7s-0.7-0.3-1.3-0.7
	c-0.4-0.2-1-0.8-1-0.8l-2.1,1.5c0,0-0.9-0.3-2.1-2.4c0,0,0-0.1-0.1-0.1c-0.9-2-1.3-3.2-1.6-4C75.8,60.4,78.1,61,79.2,61.2
	 M76.2,49.8c2.8,0.1,5,3.3,3.5,6.1c-1.5,2.8-4.4,2.5-5,1.6c-0.6-0.9-0.4-2.2,0.4-2.8c0.8-0.6,2.1,0,2.1,0l-0.1-0.1
	c0,0-1.2-1.8-3-0.2c-0.4,0.4-0.7,0.7-0.7,1.5h-3.2c0-0.4,0.1-0.5,0.1-0.9C70.9,51.9,73.5,49.7,76.2,49.8 M58.3,50.4
	c0-0.6,0.5-1.1,1.2-1.1c0.6,0,1.2,0.5,1.2,1.1c0,0.5-0.3,0.9-0.7,1.1V56H59v-4.5C58.6,51.3,58.3,50.9,58.3,50.4 M60.4,48.5
	c-0.3-0.1-0.9-0.3-1.6-0.1c-0.7,0.2-1.2,0.8-1.4,1.5c-0.2,0-0.3-0.1-0.5-0.1c-0.5,0-1,0.1-1.6,0.7c-0.4,0.4-0.6,0.9-0.6,1.5
	c0,0.7,0.3,1.3,0.8,1.7v1.3h-0.7c-0.1-0.6-0.5-1.9-1.2-3c0.4-0.4,1.5-1.9,2.1-3.7c0.4-1.1,0.6-2.1,0.7-3.3c0.2,0.2,0.4,0.5,0.6,0.8
	c0.4,0.7,0.8,1.4,0.8,1.4l0.4,0.9l0.3-0.9c0,0,0.3-0.9,0.6-2.2c0.1-0.5,0.1-0.9,0.2-1.3c0.3,0.3,0.6,0.8,0.9,1.4
	c0.4,0.7,0.7,1.5,0.9,1.8c0.1,0.2,0.2,0.5,0.2,0.7C60.9,47.9,60.6,48.1,60.4,48.5 M55.7,51.9c0-0.6,0.5-1.2,1.2-1.2
	c0.6,0,1.1,0.5,1.1,1.2c0,0.5-0.3,0.9-0.7,1.1v3h-0.9v-3C56,52.8,55.7,52.4,55.7,51.9 M73.4,56.8l0.1,1.3l-22.9,0l0-1.3H73.4z
	 M66.8,49.8c-0.2-0.6-0.4-1.2-1.4-1.6c-1-0.4-1.8,0.1-1.8,0.1s-0.2-0.4-0.6-0.6c0.1-0.2,0.2-0.6,0.2-0.8c0.1-0.3,0.5-1.2,0.9-1.8
	c0.3-0.5,0.7-1,0.9-1.4c0,0.4,0.1,0.8,0.2,1.3c0.2,1.3,0.6,2.1,0.6,2.2l0.3,0.9l0.4-0.9c0,0,0.3-0.8,0.8-1.4
	c0.2-0.3,0.4-0.6,0.6-0.8c0.1,1.1,0.4,2.1,0.7,3.3c0.5,1.7,1.6,3.1,2,3.6c-0.8,1.2-1.1,2.4-1.2,3.1h-0.8v-1.3c0.5-0.4,0.8-1,0.8-1.7
	C69.4,50.7,68.5,49.7,66.8,49.8 M66.1,51.9c0-0.6,0.5-1.2,1.2-1.2c0.6,0,1.1,0.5,1.1,1.2c0,0.5-0.3,0.9-0.7,1.1v3h-0.9v-3
	C66.4,52.8,66.1,52.4,66.1,51.9 M63.6,50.3c0-0.6,0.5-1.1,1.1-1.1c0.6,0,1.1,0.5,1.1,1.1c0,0.5-0.3,0.9-0.8,1.1V56h-0.9v-4.6
	C63.8,51.1,63.6,50.8,63.6,50.3 M82.9,40.3c0,0-0.3-0.8-1.4-1.5c-1.1-0.7-1.6-0.6-1.6-0.6s0.6-0.6,1.5-0.2c0.9,0.4,1.2,0.7,1.4,1.3
	C83,39.9,82.9,40.3,82.9,40.3 M83.2,37.4c1,0.3,2.8,1.1,3.5,1.3c1.8,0.7,3.4-0.3,3.4-0.3s-0.6,1.5-2.8,1.2c-1.5-0.2-3-1-3.7-1.4
	c-1.1-0.6-2-0.8-2-0.8S82.6,37.2,83.2,37.4 M84.8,31.5c0,0,1.4,0.1,2.4,0.9c1,0.8,1.3,1.5,1.1,2.4c-0.3,1-0.7,1.2-0.7,1.2
	s-0.9-0.8-2.6-0.9c-0.9,0-2.9,0.2-3.8,1.1c-0.2,0.2-0.3,0-0.2-0.2c0.3-0.3,0.5-0.5,1-1.1c0.7-0.9,1-1.3,1.6-2
	C84.1,32.2,84.8,31.5,84.8,31.5 M69.3,31.9c0,0,0.9,0,1.8,0c0.8-0.1,1.7-0.2,2.7-0.2c1,0,2-0.3,3.7,0.4c1.7,0.7,2.6,1,2.6,1
	s0.7-0.5,1.1-1.1c0.4-0.5,0.6-1.1,0.6-1.1s-0.4,0.2-0.9,0.1c-0.5-0.1-1.8-0.6-3.5-0.4c-1.7,0.2-3.6,0.4-5.4,0.1
	c-1.9-0.3-2.2-0.9-2.2-0.9s0.9,0.2,4.1-0.3c3.9-0.7,7.9-2.6,9.1-1.1c0.3,0.5,0.1,1.2-0.1,1.7c-0.2,0.5-1.1,2.2-2,3.1
	c-0.7,0.7-1.3,1.3-1.8,1.7c-0.4,0.3-1.7,1.1-2.6,1.4c-0.9,0.3-1.9,0.6-2.6,0.7l2.7-4.4l-0.9,0.2c0,0-1.8,0.4-3.5,1.3
	c-0.5,0.3-1.2,0.8-1.8,1.2c0.1-0.4,0.2-0.9,0.2-1.1c0.2-0.6,0.5-1,0.6-1.1c0-0.1,0.2-0.2,0.3-0.2l0.3-0.2c-0.2,0-0.5-0.1-1.1-0.2
	C69.8,32.2,69.3,31.9,69.3,31.9 M77.9,31.2c0.6,0.1,0.7,0.1,0.7,0.1c0,0-0.1,0.4-0.1,0.4s0,0-0.7-0.2c-0.6-0.2-0.6-0.2-0.6-0.2
	S77.3,31.1,77.9,31.2 M79.6,32.1c0,0,0.1,0,0.2-0.2c0.3-0.3,0.3-0.5,0.3-0.5l0.5,0.1l-0.5,0.7L79.6,32.1z M63.5,43.7
	c0.4-1,0.8-1.8,1.2-2.7c0.8-1.2,1.7-2,2.3-2.5c0,0.2-0.1,0.4-0.1,0.7c-0.2,0.7-0.2,1.5-0.2,2.1c0,0.4,0,0.6,0,0.6l0.1,1.4l0.7-1.2
	c0,0,0.6-1.1,1.3-1.9c0.5-0.6,1-1,1.4-1.3c-0.2,0.5-0.3,1-0.4,1.5c-0.1,0.6-0.1,1.2-0.1,1.8c0,0.8,0.1,1.4,0.1,1.4l0.1,0.9l0.6-0.8
	c0,0,1.1-1.5,1.9-2.3c0.7-0.7,1.4-1.3,2-1.8c0.6-0.4,1-0.7,1-0.7l-0.4-0.7c0,0-1.7,1-3.2,2.6c-0.4,0.4-0.9,1-1.3,1.5
	c0-0.1,0-0.2,0-0.3c0-0.5,0-1.1,0.1-1.6c0.1-0.4,0.3-1,0.4-1.5c0.2-0.5,0.3-0.9,0.3-0.9l0.4-1l-0.9,0.5c0,0-1.4,0.7-2.6,2.1
	c-0.2,0.3-0.5,0.6-0.7,0.9c0-0.4,0.1-0.7,0.1-1.1c0.2-0.9,0.4-1.6,0.4-1.6l0.2-0.9l-0.8,0.5c0,0-0.5,0.3-1.2,0.9
	c0.1-0.2,0.2-0.3,0.3-0.5c0.6-0.9,1.5-1.9,1.5-1.9s-1.2-0.4-1.5-0.4c-0.3,0-0.8-0.1-0.8-0.1s1-0.3,2-0.6c0.7-0.2,1.7-0.8,2.2-1
	c0,0.1-0.1,0.2-0.1,0.3c-0.2,0.6-0.4,2.2-0.4,2.2l-0.1,1l0.8-0.6c0,0,1.6-1.2,2.4-1.7c0.8-0.4,1.7-0.7,2.3-0.9c0,0,0.1,0,0.1,0
	l-2.6,4.3L73,38c0,0,1.9-0.2,3.6-0.9l0.4-0.2c1.4-0.5,2.4-1.4,2.4-1.4c0.9-0.7,1.8-1.5,2.3-2.3c1-1.5,1.9-2.8,1.9-2.8s0.2,0,0.4,0
	c0.1,0.1,0.3,0.2,0.3,0.2s-0.6,0.6-1,1.1c-0.4,0.5-1.5,1.9-2.2,3c-0.8,1.1-2,2.6-2.7,3c-0.8,0.5-1.3,0.9-1.3,0.9l-0.8,0.1
	c0,0-2,0.6-4.2,3.8c-2.1,3.3-1.8,5.9-1.2,7.2c0.1,0.2,0.4,0.7,0.6,1c-0.2,0.2-0.4,0.4-0.6,0.6c-0.1-0.2-0.3-0.4-0.5-0.7
	c-0.4-0.7-1-1.6-1.3-2.5c-0.4-1.4-0.6-2.5-0.8-4L68.4,43l-0.6,0.7c0,0-0.7,0.8-1.3,1.7c-0.2,0.2-0.3,0.5-0.4,0.7
	c-0.1-0.3-0.2-0.7-0.2-1.1c-0.2-1.2-0.3-2.1-0.3-2.1l0-0.9L65,42.6c0,0-0.9,0.9-1.6,2.2c-0.2,0.3-0.3,0.5-0.5,0.8
	C63,44.9,63.3,44.3,63.5,43.7 M62.1,48.6c0.6,0,1.2,0.5,1.2,1.2c0,0.5-0.3,0.9-0.7,1.1V56h-0.9v-5.2c-0.4-0.2-0.7-0.6-0.7-1
	C61,49.2,61.5,48.6,62.1,48.6 M41.3,28.4c1.1-1.5,5.2,0.4,9,1.1c3.2,0.5,4.1,0.3,4.1,0.3s-0.4,0.6-2.2,0.9c-1.9,0.3-3.8,0.1-5.5-0.1
	c-1.7-0.3-3,0.3-3.5,0.4c-0.5,0.1-0.9-0.1-0.9-0.1s0.2,0.6,0.6,1.1c0.4,0.5,1.1,1.1,1.1,1.1s1-0.3,2.7-1c1.7-0.7,2.7-0.4,3.7-0.4
	c1,0,1.9,0.1,2.7,0.2c0.9,0.1,1.8,0,1.8,0s-0.5,0.3-1.3,0.5c-0.5,0.1-0.9,0.2-1.1,0.2l0.3,0.2c0.1,0.1,0.2,0.2,0.3,0.2
	c0.1,0.1,0.4,0.6,0.6,1.1c0.1,0.2,0.2,0.7,0.2,1.1c-0.5-0.4-1.2-0.9-1.7-1.2c-1.8-0.9-3.5-1.3-3.5-1.3l-0.9-0.2l2.7,4.4
	c-0.7-0.2-1.7-0.4-2.6-0.7c-0.9-0.3-2.2-1.1-2.6-1.4c-0.5-0.4-1.1-1-1.8-1.7c-0.9-0.9-1.8-2.6-2-3.1C41.2,29.6,41,28.9,41.3,28.4
	 M46.7,31.2c0,0,0.1,0-0.5,0.2c-0.6,0.2-0.6,0.2-0.6,0.2s-0.1-0.4-0.1-0.4c0.1,0,0.2-0.1,0.7-0.1C46.8,31.1,46.7,31.2,46.7,31.2
	 M44.5,32.1L44,32.2l-0.5-0.7l0.5-0.1c0,0,0.1,0.2,0.3,0.5C44.4,32,44.5,32.1,44.5,32.1 M39.2,35.2c-1.7,0.1-2.6,0.9-2.6,0.9
	s-0.5-0.2-0.7-1.2c-0.3-1,0.1-1.6,1.1-2.4c1-0.8,2.4-0.9,2.4-0.9s0.7,0.7,1.3,1.4c0.6,0.7,0.9,1.1,1.6,2c0.5,0.6,0.7,0.8,1,1.1
	c0.1,0.1,0,0.4-0.2,0.2C42.1,35.3,40.1,35.1,39.2,35.2 M40.5,38.3c-0.7,0.4-2.2,1.2-3.7,1.4c-2.2,0.3-2.8-1.2-2.8-1.2
	s1.6,0.9,3.3,0.3c0.7-0.3,2.6-1,3.6-1.3c0.6-0.2,1.5,0.1,1.5,0.1S41.6,37.7,40.5,38.3 M42.6,38.9c-1.1,0.7-1.4,1.5-1.4,1.5
	s-0.1-0.4,0.1-1c0.2-0.6,0.5-0.9,1.4-1.3c0.9-0.4,1.5,0.2,1.5,0.2S43.8,38.2,42.6,38.9 M53.1,49.7c0.6-1.2,0.9-3.9-1.2-7.2
	c-2.1-3.3-4.2-3.8-4.2-3.8L47,38.6c0,0-0.5-0.4-1.3-0.9c-0.7-0.5-1.9-1.9-2.7-3c-0.7-1-1.7-2.5-2.1-3c-0.4-0.5-1-1.1-1-1.1
	s0.2-0.1,0.3-0.2c0.1-0.1,0.4,0,0.4,0s0.9,1.3,1.9,2.8c0.5,0.7,1.4,1.6,2.3,2.3h0c0,0,1,0.9,2.4,1.4l0.4,0.2
	c1.7,0.6,3.6,0.9,3.6,0.9l0.8,0.1l-2.6-4.3c0,0,0.1,0,0.1,0c0.6,0.2,1.5,0.5,2.3,0.9c0.8,0.4,2.4,1.7,2.4,1.7l0.8,0.6l-0.1-1
	c0,0-0.2-1.6-0.4-2.2c0-0.1-0.1-0.2-0.1-0.3c0.4,0.3,1.4,0.8,2.2,1c1,0.3,2,0.6,2,0.6s-0.4,0.1-0.8,0.1c-0.3,0-1.5,0.4-1.5,0.4
	s0.9,1,1.5,1.9c0.1,0.2,0.2,0.3,0.3,0.5c-0.7-0.6-1.2-0.9-1.2-0.9L56,36.8l0.2,0.9c0,0,0.2,0.7,0.4,1.6c0.1,0.3,0.1,0.7,0.1,1.1
	c-0.2-0.3-0.4-0.6-0.7-0.9c-1.2-1.4-2.6-2.1-2.6-2.1l-0.9-0.5l0.4,1c0,0,0.2,0.4,0.3,0.9c0.2,0.5,0.4,1.1,0.4,1.5
	c0.1,0.6,0.1,1.2,0.1,1.6c0,0.1,0,0.2,0,0.3c-0.4-0.5-0.9-1.1-1.3-1.5c-1.5-1.5-3.2-2.6-3.2-2.6l-0.4,0.7c0,0,0.4,0.2,1,0.7
	c0.6,0.4,1.3,1,2,1.8c0.7,0.8,1.8,2.3,1.9,2.3l0.6,0.8l0.1-0.9c0,0,0.1-0.6,0.1-1.4c0-0.5,0-1.1-0.1-1.8c-0.1-0.4-0.2-1-0.4-1.5
	c0.4,0.3,0.9,0.8,1.4,1.3c0.7,0.8,1.3,1.9,1.3,1.9l0.7,1.2l0.1-1.4c0,0,0-0.2,0-0.6c0-0.5,0-1.3-0.2-2.1c0-0.2-0.1-0.4-0.1-0.7
	c0.6,0.5,1.5,1.3,2.3,2.5c0.4,0.8,0.8,1.7,1.2,2.7c0.2,0.6,0.4,1.2,0.6,1.8c-0.1-0.3-0.3-0.5-0.5-0.8c-0.8-1.3-1.6-2.2-1.6-2.2
	L58.6,42l0,0.9c0,0,0,0.9-0.3,2.1c-0.1,0.4-0.2,0.8-0.2,1.1c-0.1-0.2-0.3-0.4-0.4-0.7c-0.6-0.9-1.3-1.7-1.3-1.7L55.7,43L55.6,44
	c-0.1,1.6-0.3,2.6-0.8,4c-0.3,0.9-0.8,1.8-1.3,2.5c-0.2,0.3-0.4,0.6-0.6,0.8c-0.2-0.2-0.3-0.5-0.5-0.6C52.8,50.3,53,49.9,53.1,49.7
	 M44.4,55.9c-1.5-2.8,0.7-6.1,3.5-6.1c2.8-0.1,5.3,2.2,5.9,5.3c0.1,0.4,0.1,0.5,0.1,0.9l-3.2,0c-0.1-0.8-0.2-1.2-0.6-1.7
	c-1.6-1.9-3.4-0.2-3.4-0.2s-0.4,0.7-0.2,0.9c0.2,0.2,0.7,0.1,0.7,0.1s0.9-0.7,1.7-0.1c0.8,0.6,1,1.6,0.4,2.5
	C48.9,58.4,46,58.8,44.4,55.9 M32.1,41.6c0,0,1.5,1.2,5.4,5.4c3.9,4.3,3.1,4.7,1.6,6.7c-1.4,2-1.6,3.6-0.7,5
	c0.8,1.4,3.2,3.2,6.6,2.5c1.1-0.2,3.3-0.9,4.5-1.6c-0.2,0.8-0.6,2-1.6,4c0,0,0,0.1-0.1,0.1c-1.2,2.1-2.1,2.4-2.1,2.4l-2.1-1.5
	c0,0-0.6,0.5-1,0.8c-0.6,0.4-1.3,0.7-1.3,0.7s-0.5-0.2-1-0.7c-0.4-0.4-1-1.6-1-1.6s-0.7,0.6-1.4,1c-0.6,0.3-2,0.4-2,0.4
	s-0.7-0.5-1-1.2c-0.3-0.7-0.3-1.9-0.3-1.9s-0.2,0-0.6,0l0,0c0,0,0,0,0,0c-0.3,0-0.7-0.1-1.1-0.2c-0.8-0.3-1.4-0.7-1.4-0.7
	s0.1-0.5,0.5-1.1c0.6-0.7,1.5-1.4,1.5-1.4s-1.1-0.6-1.8-1.1c-0.7-0.6-1.1-1.7-1.1-1.7s0.3-0.5,1-1.1c0.7-0.7,1.7-1.1,1.7-1.1
	s-0.7-0.8-1.2-1.3c-0.4-0.5-0.7-1.8-0.7-1.8s0.5-0.4,1.4-0.5c1.3-0.2,2.2-0.2,2.2-0.2s-0.6-0.6-1.3-1.4c-0.7-0.7-3-3-3.1-4.4
	C30.6,42.1,32.1,41.6,32.1,41.6 M26.6,53.3c1.9,0.5,4,0.8,4.8,0.8c-0.1,0-0.1,0.1-0.2,0.1c-0.8,0.6-1.2,1.1-1.4,1.4
	c0.2,0.5,0.4,0.8,0.4,0.8c-0.4,0.1-1.6,0.1-2.7,0c-2.4-0.3-4.1-1.2-4.9-1.6c0.2-0.2,0.6-0.7,2.1-1.2C25.8,53.3,26.3,53.3,26.6,53.3
	 M21.7,49.4c0.3-0.2,0.9-0.6,2.3-0.7c0.8-0.1,1.3-0.1,1.7-0.1c1.7,1.2,4.1,2.1,5,2.5c0.3,0.8,0.6,1.4,0.9,1.6c-0.6,0-2-0.1-4.7-0.8
	C24.6,51.3,22.6,50.4,21.7,49.4 M25.3,57.4c2.1,0.7,4.6,0.7,5.7,0.6c0.3,0.4,0.9,0.7,1.1,0.8c-0.3,0.2-0.6,0.6-0.8,0.8
	c-0.8,0.1-1.6,0.3-3.2,0.3c-2.3,0.1-5.1-0.6-5.8-1c0.2-0.2,0.6-0.8,1.6-1.2c0.5-0.2,0.8-0.4,1.1-0.5C25.2,57.3,25.3,57.4,25.3,57.4
	 M28.1,61.3c1.3,0.1,1.9-0.1,2.6-0.2c-0.2,0.2-0.2,0.5-0.2,0.5s0.6,0.7,1.6,1c-0.3,0.1-1,0.5-1.4,0.6c-2.2,0.8-4.3,0.9-5.6,0.9
	c0.1-0.3,0.3-0.9,1-1.6c0.6-0.6,1.5-1,1.7-1.2C27.8,61.3,28.1,61.3,28.1,61.3 M29.2,66.2c0.1-0.5,0.3-1.1,0.4-1.4
	c2-0.5,4.3-1.9,4.3-1.9s0,0.9,0.4,1.8c0.1,0.1,0.1,0.2,0.2,0.3c-0.4,0.3-0.7,0.9-2.4,1.6c-1.7,0.8-2.9,0.8-2.9,0.8
	S29.1,67.1,29.2,66.2 M32.6,67.7c2-1.2,2.2-1.7,2.6-2.1c0.1,0.1,0.4,0.5,0.6,0.6c0.3,0,0.7-0.1,1.3-0.3c-0.2,0.6-0.5,1.9-1.8,3.2
	c-1.1,1.1-2.4,1.3-2.4,1.3s-0.2-0.5-0.2-1.3C32.6,68.6,32.6,67.9,32.6,67.7 M37.8,66.7C37.8,66.7,37.8,66.7,37.8,66.7
	C37.8,66.7,37.8,66.7,37.8,66.7c0.1-0.4,0.2-0.8,0.2-1c0.7-0.2,1.2-0.5,1.2-0.5s0.3,0.7,0.7,1.2c0.2,0.2,0.5,0.4,0.7,0.6
	c0,0.6,0,1.7-0.5,2.7c-0.8,1.4-2.1,1.7-2.1,1.7s-0.4-0.3-0.8-1c-0.3-0.5-0.4-0.9-0.4-1.3C37.1,68.5,37.7,67.3,37.8,66.7 M31.9,47.8
	c0.9,0.9,1.5,1.4,1.5,1.4s-0.9,0.1-1.9,0.5c-0.7-0.3-2-0.8-3.9-1.9c-2-1.1-4-2.8-4.7-3.5c0.3-0.1,1.2-0.4,2.5-0.2
	c0.8,0.1,1.4,0.3,1.7,0.3C29.1,46.6,31,47.4,31.9,47.8 M26.5,37.3c0.2,0.4,0.8,1.5,1.8,2.9c0.8,1.1,1.6,1.7,2,2
	c-0.5,1-0.2,2.3-0.1,2.6c-0.6-0.3-1.6-0.9-2.6-2.2c-1.2-1.5-2.1-3.3-2.1-5.1C25.5,36.5,26,36.3,26.5,37.3 M14.7,24.1
	c0-1.9,1.3-2.4,1.9-1.2c1.3,2.6,3.3,6.8,4.8,9.2c1.8,2.8,3.4,4.7,3.4,4.7c-0.3,1.5,0.2,2.8,0.2,3c-1.4-0.9-3-1.9-6.5-6.3
	C16.8,31.3,14.7,26.8,14.7,24.1 M12.8,35.9c-0.7-1.2-1.6-3.2-1.4-4.6c0,0,0.9,0.4,1.8,1.2c2,1.8,5.1,4.1,5.9,4.9
	c3.2,3.3,7.1,5.9,7.1,5.9s0.1,0.2,0.2,0.4c-2.2-0.8-4.2,0-4.3,0c-0.7-0.3-1-0.3-5.1-3.3C15.8,39.4,13.9,37.7,12.8,35.9 M9.9,39.7
	c0.2,0,0.7-0.2,1.9,0c0.7,0.1,1.7,0.4,2.2,0.5c0,0,0.1,0.1,0.2,0.1c3.3,3.2,7.6,5,8.9,5.5c0.4,0.6,0.9,1.3,1.7,2c0,0-1,0-2,0.2
	c-0.9-0.3-3-1.1-6.6-3C12.3,42.9,10.6,40.9,9.9,39.7 M9.2,46.9c0.2,0,0.9-0.2,2.2-0.2c1.5,0,4,0.2,4.3,0.3c0.8,0.4,1.3,0.5,2.1,0.8
	c1.1,0.4,2.7,0.8,3.4,1c-0.8,0.3-0.9,0.5-0.9,0.5s0.6,0.9,2.9,2.5c-1-0.1-3.7,0.1-8.2-1.3C11.6,49.4,10.4,48.3,9.2,46.9 M9.4,53.3
	c0.3-0.1,0.9-0.4,1.9-0.6c1.3-0.3,2.7-0.2,3.5-0.2c1.8,0.6,3,0.6,4.3,0.7c2,0.1,3.8,0,5,0c0,0-0.8,0.1-1.9,0.9c-0.6,0.4-0.9,1-0.9,1
	c0,0.1,0.4,0.4,0.5,0.5c-0.9,0.2-3.1,0.4-7.1-0.1C11.6,55,10.1,53.8,9.4,53.3 M10.3,59.7c0.1-0.2,0.9-0.6,2.1-1.3
	c0.8-0.4,2.3-0.8,3.2-0.9c2,0.1,3.6,0,4.9-0.3c1.6-0.3,2.5-0.6,3-0.7c0,0,0.5,0.3,0.7,0.4c-0.5,0.1-1.4,0.4-2,1
	c-0.7,0.7-0.9,1.2-0.9,1.3c0.2,0.3,1.2,0.7,1.2,0.7c-1.5,0.5-3,0.7-5.4,0.8C12.3,61,11.1,60.3,10.3,59.7 M11.7,66.3
	c0-0.2,0.5-1,1.5-1.9c0.6-0.5,1.6-1.2,2-1.3c3.4-0.1,5.5-0.7,7.1-1.3c1.3-0.5,1.9-0.8,2.2-1c1.2,0.4,2,0.5,2.3,0.5
	c-0.8,0.3-2.5,2.1-7.3,4C15.1,67,13.4,66.7,11.7,66.3 M15.3,71.5c0,0,0.2-1.4,1.7-3.3c2.4-0.5,5.4-2.2,6.7-3.2
	c0.2-0.2,0.3-0.1,0.6-0.3c0.7,0.3,2.1,0.3,2.8,0.3c-0.9,0.8-4.4,4-7.2,5.3C16.8,71.7,15.3,71.5,15.3,71.5 M23.7,73.8
	c-2.2,1.5-3.9,1.8-3.9,1.8s-0.1-0.6,0.1-1.3c0.2-1.2,0.5-1.9,0.5-1.9c2.6-1.2,5.2-4.1,6.2-5.5c0.2-0.3,1.1-1.4,1.5-1.9
	c0.2,0,0.4,0,0.6-0.1c-0.1,0.3-0.3,0.8-0.4,1.6c-0.1,1,0,1.9,0,1.9s0.2,0.1,0.5,0.1C28,69.3,26.1,72.1,23.7,73.8 M28.6,76.3
	c-1.9,1.8-3.6,1.9-3.6,1.9s-0.1-0.7,0-1.5c0.1-0.6,0.3-1.8,0.4-2c2.1-1.9,3.5-4.6,4.3-6.2c0.6,0,1.4-0.1,2.1-0.4
	c0,0.3-0.1,0.9,0,1.6c0.1,0.5,0.2,1.2,0.3,1.5C31.6,72.4,30.6,74.4,28.6,76.3 M34.6,77c-1.6,2.1-3.4,2.7-3.4,2.7s-0.5-0.4-0.5-3
	c1.3-1.7,2.1-3.7,2.7-5.4c0.8-0.2,1.9-0.6,2.8-1.5c0.1,0.2,0.2,0.7,0.5,1.3c0.1,0.1,0.4,0.7,0.5,0.8C36.4,74.2,35.7,75.7,34.6,77
	 M39.9,77.4c-0.9,2.1-2.1,2.3-2.1,2.3s-0.7-1.4-0.7-3.5c0.6-1.3,0.8-2.2,1.2-3.7c0.5-0.2,1.4-0.7,2-1.5c0,0.1,0.4,1,0.7,1.5
	C40.8,74.7,40.5,76,39.9,77.4 M42.3,72.4c0,0-0.3-0.2-0.8-0.9c-0.3-0.5-0.6-1.1-0.7-1.3c0-0.1,0.2-0.6,0.3-1
	c0.2-0.8,0.3-1.5,0.3-2.2c0,0,0.4-0.2,1.1-0.6c0.7-0.4,1.1-0.8,1.1-0.8l1.3,1c0,0.4,0,1.8-0.7,3.2C43.5,71.5,42.3,72.4,42.3,72.4
	 M42.8,88.5c-0.2-0.6-0.1-0.9,0.2-1.3c0.3-0.4,0.6-1.2,0.9-1.1c0.2,0.1,0.1,0.5-0.1,0.8c-0.1,0.3-0.6,0.7-0.6,0.9
	c0.1,0.2,0.6-0.1,0.6-0.1s-0.2,0.6,0.1,0.7c0.3,0.1,0.4-0.3,0.6-0.3c0.2,0,0.5,0.7,0.9,0.8c0.4,0.1,0.9-0.5,0.9-0.5l0.9,0.2
	c0,0,0.5,0.9-0.3,1.3c-0.8,0.4-1.2,0-1.9-0.5C44.5,88.8,43,89.1,42.8,88.5 M47,87.7c-0.1-0.2,0.2-0.4,0.2-0.4s0.1-0.3,0.2,0
	c0.1,0.4,0.2,0.7,0,0.7C47.3,88.1,47,88,47,87.7 M46.7,92.9c-0.1-0.2-0.6,0.2-0.7-0.4c-0.1-0.5,0.2-0.5,0.7-0.2
	c0.5,0.3,0.7,0.4,0.6,0.7C47.2,93.2,46.8,93.2,46.7,92.9 M47.7,91.8c-0.7,0.1-1.3-0.5-2-0.6c-0.7-0.2-1.2,0.1-1.7-0.5
	c-0.5-0.6-0.1-0.9,0.1-0.9c0.2,0,0,0.3,0.2,0.4c0.2,0.1,0.4-0.2,0.4-0.1c0.1,0.1-0.1,0.4,0.1,0.5c0.2,0.1,0.2-0.3,0.4-0.2
	c0.2,0.1,0.9,0.4,1.2,0.3c0.3-0.1,0.9-0.7,1.4-0.1C48.4,91.1,48.4,91.7,47.7,91.8 M48.5,89.7c0,0,0.7-0.5,0.5,0.1
	c-0.1,0.6-0.2,1-0.6,0.4C48,89.8,48.5,89.7,48.5,89.7 M49.1,93.7c-0.6,0-0.9-0.1-0.8-0.8c0.1-0.7,0.1-0.4,0.7-0.4
	c0.5-0.1,1.1-0.1,1.1,0.4C50,93.5,49.6,93.7,49.1,93.7 M50,92.1c-0.3-0.2-0.2-0.5-0.1-0.7c0.2-0.2,0.4-0.2,0.4,0.4
	C50.4,92.4,50.3,92.4,50,92.1 M52.3,113.6c-1.1,0.8-2.3,0.9-3.3,0.7c-1.4-0.3-1.8-1-2.1-1.8c-0.4-1-0.2-2.7-0.2-3.4
	c0-0.2,0.6-2.2,0.7-2.7c0.1-0.3,0.2-0.6-0.1-0.6c-0.5,0.1,0.1,0.5-1.5,1.4c-1.1,0.6-1.8,1.9-1.6,3.3c0.2,1.4,0.1,1.7,0.1,1.7
	c0-0.1-0.1-0.5-0.3-1c-0.1-0.3-0.3-0.6-0.6-1.8c-0.3-1.1,0.3-1.9,0.9-2.7c0.6-0.9,1.5-1.5,1.5-1.5s-0.7-0.1-1.2-0.4
	c-0.5-0.3-0.9-0.7-0.9-1.5c0-0.6,0.6-1.1,0.6-1.1s-0.1,0.7,0.3,1.3c0.3,0.4,1.2,0.8,2.2,0.8c0.9,0,2.6-1.1,3.2-1.9
	c0.7-0.8,1.6-1.5,2.3-1.9c0.9-0.6,1.3-0.6,2.1-0.8c0.4,0,0.5,0,0.8,0c-1.6,0.8-4.2,3-5.9,6c-1.1,2.1-1.2,3.8-0.8,4.8
	c0.4,1.1,1.2,1.6,2,1.7c0.9,0.1,1.5-0.1,2.1-0.2c0.7-0.1,1.2,0.1,1.5,0.4c0.5,0.4,0.5,0.7,0.5,0.7S53.4,112.9,52.3,113.6 M50.9,85.3
	l0.9-1l1.7,2.3L53.1,87L50.9,85.3z M52.5,87.7L52.2,88l-2.3-1.6l0.3-0.3l0.1-0.2L52.5,87.7z M54.2,86.8l0.4,0.1l-1.7,1.9l-0.1-0.3
	L54.2,86.8z M54.9,87.9l2.4,2.5l-0.8,0.9l-2.6-2.2L54.9,87.9z M57.8,90.8L58,91l-0.9,1.1l-0.3-0.2L57.8,90.8z M58.5,91.4l14.8,15.2
	l-0.3,0.3L57.7,92.3L58.5,91.4z M73,87.2c0.7,0,0.8,0.2,0.2,0.7c-0.6,0.5-3.5,1.3-3.5,1.3s1.2,0.1,1.9,0.2c0.7,0.1,0.9,0.2,0.5,0.7
	c-0.5,0.6-3.8,1-3.8,1s1.1,0.2,1.7,0.4c0.3,0.1,0.6,0.3-0.1,0.8c-0.7,0.5-3.1,1.1-3.1,1.1s1.5,0.5,0.6,1.1c-0.9,0.5-3,0.9-3,0.9
	s1.3,0.4,1,0.9c-0.1,0.1-0.5,0.2-1,0.4l-2.3-2.3c4.2-4.1,7.7-7.2,10.4-8.5c2.7-1.4,2.9-1.1,1.8-0.1c-1.1,1-3,1.5-3,1.5
	S72.3,87.2,73,87.2 M71.8,107.1l0.8,0.7c0,0,0,0,0,0h0c-1.6,0.3-1.6-0.3-1.6-0.3S71.2,107.6,71.8,107.1 M70.4,107
	c0,0-0.8-0.8-1.8-2.2c-0.6-0.9-1.1-1.5-1.8-2.6l4.5,4.5C70.8,107,70.4,107,70.4,107 M71.8,110.1c0.6-0.8,0.4-1.3,0.4-1.3
	s0.4,0.1,1,0c0.3,0,0.6-0.2,0.6-0.2s0.3,0.7-0.2,1.3c-0.5,0.7-0.9,0.6-1.8,0.8c-0.6,0.1-0.8,0-0.8,0S71.5,110.5,71.8,110.1
	 M62.3,97.8c0,0,0,0.1-0.1,0.2c-0.4,0.5-4.2,1.2-4.2,1.2l-7.5,7.1c0,0,0.1-0.8,1.3-2.1c2-2.2,5.8-5.6,8.5-8.2L62.3,97.8z
	 M51.6,110.6c0,0-0.7,0.1-1.1-0.4c-0.7-0.7-0.4-1.8-0.4-1.8s0.3,0.3,1,0.4c0.3,0,0.8,0,0.8,0s-0.2,0.4-0.2,0.8
	C51.5,110.1,51.6,110.6,51.6,110.6 M51.4,108.2c-0.4-0.1-0.7-0.3-1-0.4l1-1c0.2,0.1,0.4,0.3,0.7,0.4c0.7,0.3,1.6,0.2,1.6,0.2
	S53.1,108.5,51.4,108.2 M53.4,106.8c0,0-0.8-0.1-0.9-1l6.1-5.8c0,0,0.1,0,0.2,0c-0.1,0.3-0.3,0.6-0.4,0.9c-1,1.7-2,2.5-2.7,3.3
	C54.8,105,53.4,106.8,53.4,106.8 M55.3,115.3c-1.2-0.3-1.9-1.4-1.9-1.4s0.5-0.2,1-0.1c0.5,0,1.1,0.4,1.1,0.4s0-0.2-0.1-0.8
	c-0.1-0.4-0.1-0.9-0.7-1.6c-0.8-1-1.8-0.8-2-1.1c0,0-0.2-0.3-0.2-0.7c-0.1-0.4,0.1-0.7,0.3-1c0.2-0.2,0.9-0.4,1.4-1
	c0.5-0.5,0.8-1.1,0.8-1.1h-0.5c0,0,1.2-1.6,2.8-3.2c1.4-1.5,2.1-3.2,2.3-3.9c0.2,0,0.1,0,0.3,0c-0.1,0.5-0.4,1.5-0.8,2.3
	c-0.5,1-1.3,2.3-2.1,3.8c-1,1.9-1.7,3.5-1.6,4.9c0.2,3.2,4,4.5,4,4.5C59.3,115.3,57.4,116,55.3,115.3 M59.3,106.8
	c-0.2,0.9-0.5,2.4-0.6,4.1c-0.1,1.9,0.2,3.2,0.2,3.2s-1.8-0.9-1.9-3.1c0-1.3,0.5-2.7,1-4c0.5-1.2,2.6-7.1,2.6-7.1l0.3,0
	C60.6,101.5,59.4,106.1,59.3,106.8 M59.9,114.8c-0.3-0.1-0.4-3.2-0.3-4.5c0.2-2.1,0.7-4.4,1.3-7.2c0.2-1.1,0.4-2.2,0.6-3.2
	c0.2,0,0.2-0.1,0.3-0.1c0,1.9,0.1,4.7,0,7c-0.1,0-0.7,1.4-0.8,1.8c-0.1,0.4-0.6,1.7-0.7,3.4c-0.1,1.5,0.2,2.6,0.2,2.6
	S60.2,114.9,59.9,114.8 M62.1,118.1l-0.3-0.3c0,0-0.5-0.6-0.8-1c-0.5-0.6-0.6-1.1-0.6-1.1l0.6-0.2c0,0,0.3,0.6,0.7,1.2
	c0.1,0.2,0.4,0.6,0.5,0.7L62.1,118.1z M62.1,116.3l-0.1-3.1c0-1.3-0.1-4.5-0.1-5.3c0,0,1.5,1.1,1.4,4.4
	C63.4,114.5,62.6,115.5,62.1,116.3 M62.8,99.9c0.2,0,0.3,0.1,0.4,0.1c0,0,0,0,0,0s2.4,6.2,2.9,7.4c0.5,1.2,1,2.7,1,3.6
	c0,2.7-2.4,3.9-2.4,3.9s0.8-1.6,0.8-3.8C65.5,108.6,63.2,101.3,62.8,99.9 M69.5,112.8c-0.8,2.5-3.4,2.5-4.1,2.5c0,0,1.8-0.7,2.4-2.7
	c0.5-1.7,0.5-3.1-0.8-5.9c-1.1-2.4-2.5-5.8-2.9-6.9c0.2,0,0.2,0,0.3,0l0.1,0.1c0.3,0.5,1.1,2,2.1,3.9c1.2,2.5,1.8,3.4,2.3,4.5
	C69.9,110.3,69.9,111.7,69.5,112.8 M71.1,100.9c0.3,0.2,0.7,0.6,1.1,1c0.7,0.6,2.6,2.1,3.9,2.3c1.7,0.3,3-0.1,3.4-0.8
	c0.3-0.5,0.2-1,0.2-1s0.3,0.2,0.4,0.6c0.2,0.7-0.3,1.5-1,1.8c-0.8,0.4-1.8,0.5-2.8,0.3c-1,0-0.2,0.4,0.4,0.8c1.5,1,3.3,1.3,3.4,2.7
	c0.1,1,0,1-0.2,2.1c-0.2,0.9-0.4,0.4-0.4,0.4s-0.1-0.5-0.3-0.8c-0.6-0.9-1.4-1-1.9-1.9c-0.5-0.8-1.3-2.2-1.7-1.8
	c-0.3,0.1,2.1,3.6,0.4,5.9c-1.9,2.6-3.5,0.7-4.6,0.7c-0.5,0-1.5,0.6-1.5,0.6s0.3-1.4,0.6-1.7c0.4-0.3,0.8-0.4,1.6-0.5
	c0.8-0.1,2.3-0.3,2.5-2.4c0-0.8-0.6-1.8-0.8-2.2l0.4-0.5l-6.6-6.7c0.2,0,0.2,0,0.3,0C68.6,99.9,70.1,100.1,71.1,100.9 M73.1,91.8
	c-0.5,0.3-0.8,0.4-1.1,0.5c-0.2,0.1-0.4,0.2-0.6,0.2c-1.5,0.6-1.7,2.3-2,4.4c-0.3,2.1-0.7,1.8-1.5,1.8c-0.2,0-0.6,0-1.3,0L65,97.1
	c0.3-0.1,0.6-0.2,0.7-0.3c0.6-0.5,0.2-1.1,0.2-1.1s1.2-0.2,2.2-0.8c1-0.6,0.4-1.3,0.4-1.3s1.4-0.4,2.2-1c1.1-0.7,0.3-1.5,0.3-1.5
	s1.1-0.1,1.7-0.8c1.2-1.3-0.2-1.5-0.2-1.5s1-0.3,1.6-0.9c1-0.9-0.1-1.3-0.1-1.3s1.7-1.2,1.7-2.2c0-0.8-1.1-0.7-1.8-0.5
	c-0.9,0.3-2.4,1-4.4,2.4c-1.7,1.2-5.3,4.3-8.2,7.1l-2.9-3l-4-4.3l-0.4-0.2l-2.5-3.1l-2.9,3.3l3.2,2.3l0.1,0.3l4.6,3.6l3.1,2.8
	c-1.1,1.2-2,2.1-3.3,3.3c-0.3,0-0.2,0-0.3,0c-0.7,0-1.2,0.3-1.5-1.8c-0.3-2.1-0.4-3.8-2-4.4c-0.5-0.2-0.9-0.4-1.7-0.8
	c0.2-0.8-0.3-1.3-0.6-1.3c-0.1,0-0.5,0.1-0.7,0.5c-0.1-0.1-0.1,0-0.2-0.1c0,0,0.2-0.4,0.2-0.4c0.3-0.5,0.3-1.5-0.4-1.6
	c-0.5-0.1-0.7,0.1-0.7,0.1s-0.1,0.2-0.2-0.1c-0.1-0.3-0.1-0.4-0.1-0.7c0-0.3,0-0.7-0.2-1.4c-0.2-0.7-0.8-0.8-1.2-0.4
	c-0.3,0.3-0.1,0.7-0.4,1c0,0-0.1,0-0.1,0c-0.4-0.5-0.5-0.8-0.8-1.5c-2-4.6-0.7-10.6-0.1-13c0.6-2.5,2.7-6.9,3.7-9.1
	c0.5-1,1-2.2,1.3-3.9l3.5-0.9c-0.2,1.8-0.8,4-1.3,5.6c-0.7,2.5-2.1,6.3-2.5,8.2c-0.5,2-0.9,6.4,1,9c1.6,2.3,3.7,3.6,5.5,4.2V59.7
	l0.9-0.7v27.4c0.6,0.2,1.2,0.3,1.7,0.4V59.7l0.9-0.7v28c0.5,0.1,1.1,0.1,1.7,0.1V59.7l0.9-0.7v28.1c0.6,0,1.2-0.1,1.7-0.1V59.7
	l0.9-0.7v27.8c0.5-0.1,1.1-0.3,1.7-0.4V59.7l0.9-0.7v27.1c1.7-0.6,3.9-1.9,5.5-4.2c1.9-2.7,1.4-7.1,1-9c-0.5-2-1.8-5.8-2.5-8.2
	c-0.4-1.4-0.9-2.7-1.1-4.7l3.2-0.8c0,0.3,0.1,0.5,0.1,0.8l0,0.1c0.3,1.5,0.7,2.5,1.1,3.4c0.1,0.2,0.2,0.4,0.2,0.5
	c1,2.2,3,6.6,3.7,9.1c0.6,2.5,2,8.5-0.1,13c-0.1,0.2-0.2,0.4-0.3,0.6c-0.2,0.3-0.3,0.5-0.6,0.9c0,0-0.1,0-0.1,0
	c-0.4-0.3-0.1-0.7-0.4-1c-0.4-0.3-1-0.2-1.2,0.4c-0.2,0.7-0.3,1.1-0.2,1.4c0,0.3,0,0.4-0.1,0.7c-0.1,0.3-0.2,0.1-0.2,0.1
	s-0.2-0.3-0.7-0.1c-0.7,0.2-0.7,1.1-0.4,1.6c0,0,0.2,0.4,0.2,0.4c-0.1,0.1-0.1,0-0.2,0.1c-0.3-0.4-0.6-0.5-0.8-0.5
	C73.4,90.5,72.9,91,73.1,91.8 M77.1,87.7C77,88,76.8,88.1,76.6,88c-0.1,0-0.1-0.3,0-0.7c0.1-0.4,0.2,0,0.2,0S77.2,87.5,77.1,87.7
	 M75.7,90.3c-0.4,0.5-0.5,0.1-0.6-0.4c-0.1-0.6,0.5-0.1,0.5-0.1S76.1,89.8,75.7,90.3 M73.7,91.8c0.1-0.5,0.3-0.5,0.4-0.4
	c0.2,0.2,0.3,0.4-0.1,0.7C73.7,92.4,73.6,92.4,73.7,91.8 M75,93.7c-0.6,0-0.9-0.2-0.9-0.8c0-0.6,0.5-0.5,1.1-0.4
	c0.5,0.1,0.6-0.3,0.7,0.4C76,93.6,75.6,93.7,75,93.7 M77.4,92.9c-0.1,0.2-0.5,0.3-0.6,0.1c-0.1-0.2,0.1-0.4,0.6-0.7
	c0.5-0.3,0.8-0.3,0.7,0.2C78,93.1,77.5,92.7,77.4,92.9 M80.1,90.6c-0.5,0.6-1.1,0.4-1.7,0.5c-0.6,0.2-1.2,0.7-2,0.6
	c-0.7-0.1-0.7-0.6-0.2-1.2c0.5-0.6,1.1,0,1.4,0.1c0.3,0.1,1-0.2,1.2-0.3c0.2-0.1,0.2,0.2,0.4,0.2c0.2-0.1,0-0.4,0.1-0.5
	c0.1-0.1,0.2,0.2,0.4,0.1c0.2-0.1,0.1-0.4,0.2-0.4C80.1,89.7,80.5,89.9,80.1,90.6 M80.1,88.3c0.3-0.1,0.2-0.7,0.2-0.7
	s0.5,0.3,0.6,0.1c0.1-0.2-0.4-0.6-0.6-0.9c-0.1-0.3-0.3-0.7-0.1-0.8c0.2-0.1,0.5,0.7,0.9,1.1c0.3,0.4,0.4,0.7,0.2,1.3
	c-0.2,0.6-1.6,0.2-2.3,0.7c-0.7,0.5-1.1,0.9-1.9,0.5c-0.8-0.4-0.3-1.3-0.3-1.3l0.9-0.2c0,0,0.5,0.6,0.9,0.5c0.4-0.1,0.7-0.8,0.9-0.8
	C79.7,88,79.8,88.5,80.1,88.3 M82.6,71.5c-0.4,0.7-0.8,0.9-0.8,0.9s-1.2-0.9-2-2.5c-0.7-1.4-0.7-2.8-0.7-3.2l1.3-1
	c0,0,0.4,0.3,1.1,0.8c0.7,0.4,1.1,0.6,1.1,0.6c-0.1,0.6,0.1,1.4,0.2,2.2c0.1,0.4,0.3,0.9,0.3,1C83.1,70.4,82.9,71,82.6,71.5
	 M86.3,79.7c0,0-1.3-0.2-2.1-2.3c-0.6-1.4-0.8-2.7-1-4.9c0.2-0.4,0.6-1.3,0.7-1.5c0.7,0.8,1.5,1.3,2,1.5c0.4,1.5,0.6,2.4,1.1,3.7
	C86.9,78.3,86.3,79.7,86.3,79.7 M92.9,79.7c0,0-1.8-0.6-3.4-2.7c-1-1.4-1.8-2.8-2.6-5.1c0.1-0.1,0.4-0.7,0.5-0.8
	c0.3-0.6,0.4-1.1,0.5-1.3c0.9,0.9,1.9,1.3,2.7,1.5c0.6,1.7,1.4,3.7,2.7,5.4C93.3,79.3,92.9,79.7,92.9,79.7 M99.1,78.2
	c0,0-1.7,0-3.6-1.9c-2-2-3-3.9-3.5-5.1c0.1-0.3,0.3-1,0.3-1.5c0.1-0.7,0-1.3,0-1.6c0.8,0.3,1.5,0.4,2.1,0.4c0.8,1.6,2.2,4.3,4.3,6.2
	c0,0.2,0.3,1.4,0.4,2C99.2,77.5,99.1,78.2,99.1,78.2 M104.3,75.6c0,0-1.8-0.2-3.9-1.8c-2.4-1.7-4.3-4.5-4.9-5.3
	c0.3,0,0.5-0.1,0.5-0.1s0.1-0.9,0-1.9c-0.1-0.7-0.3-1.3-0.4-1.6c0.2,0,0.4,0,0.6,0.1c0.4,0.5,1.3,1.6,1.5,1.9
	c1.1,1.4,3.6,4.3,6.2,5.5c0,0,0.3,0.7,0.5,1.9C104.4,75,104.3,75.6,104.3,75.6 M108.8,71.5c0,0-1.5,0.1-4.6-1.2
	c-2.8-1.2-6.3-4.4-7.2-5.3c0.7,0,2.1,0,2.8-0.3c0.3,0.2,0.4,0.2,0.6,0.3c1.3,0.9,4.3,2.6,6.7,3.2C108.6,70.1,108.8,71.5,108.8,71.5
	 M110.9,64.3c1,0.9,1.5,1.7,1.5,1.9c-1.7,0.4-3.4,0.7-7.8-1c-4.7-1.9-6.5-3.7-7.3-4c0.2,0,1-0.1,2.3-0.5c0.3,0.2,0.9,0.5,2.2,1
	c1.6,0.6,3.8,1.2,7.1,1.3C109.3,63.2,110.3,63.8,110.9,64.3 M111.6,58.5c1.2,0.6,2,1.1,2.1,1.3c-0.7,0.5-2,1.3-6.7,1
	c-2.4-0.1-4-0.3-5.4-0.8c0,0,1-0.4,1.2-0.7c-0.1-0.1-0.2-0.6-0.9-1.3c-0.6-0.6-1.5-0.9-2-1c0.2-0.1,0.7-0.4,0.7-0.4
	c0.4,0.1,1.3,0.4,3,0.7c1.3,0.2,2.9,0.4,4.9,0.3C109.3,57.6,110.8,58,111.6,58.5 M109.3,55.4c-4,0.5-6.2,0.3-7.1,0.1
	c0.1-0.1,0.5-0.4,0.5-0.5c0,0-0.3-0.6-0.9-1c-1.1-0.8-1.9-0.9-1.9-0.9c1.2,0,3,0.2,5,0c1.3-0.1,2.5-0.1,4.3-0.7c0.8,0,2.2,0,3.5,0.2
	c1,0.2,1.6,0.5,1.9,0.6C114,53.8,112.4,55,109.3,55.4 M89.1,56.3l2.3,0.2l0.5-0.7l-0.6-0.5l-2.3,0.3L89.1,56.3z M38.4,34.1
	c0,0,0-0.2,0-0.4c0-0.3,0-0.6,0-0.6s-0.7,0.6-0.9,1.3c-0.2,0.7-0.2,0.9-0.2,0.9s0.1-0.3,0.8-0.4c0.7-0.2,1.6-0.1,1.6-0.1l0.2-0.4
	c0,0-0.3-0.2-0.8-0.2C38.7,34,38.4,34.1,38.4,34.1 M86,34.8c0.7,0.2,0.8,0.4,0.8,0.4s0-0.2-0.2-0.9c-0.2-0.7-0.9-1.3-0.9-1.3
	s0,0.3,0,0.6c0,0.2,0,0.4,0,0.4s-0.3-0.1-0.8,0c-0.5,0-0.8,0.2-0.8,0.2l0.2,0.4C84.4,34.7,85.3,34.6,86,34.8 M65.7,13.9
	c0.3,0.5,0.6,1,0.8,1.4c0.2-0.2,0.4-0.3,0.5-0.5c0.1-0.1,0.3-0.3,0.4-0.4C67.3,14,67,13.5,66.7,13C66.3,13.4,65.9,13.7,65.7,13.9
	 M66.8,11.9c0.4-0.4,0.6-0.6,0.8-0.9c-0.1-0.2-0.2-0.3-0.4-0.5c-0.2-0.2-0.3-0.3-0.4-0.5c-0.1,0.1-0.3,0.3-0.4,0.5
	c-0.2,0.2-0.3,0.3-0.5,0.4c0.3,0.3,0.6,0.6,0.8,0.9C66.8,11.8,66.8,11.8,66.8,11.9 M57.1,11.8c0.2-0.3,0.5-0.6,0.8-0.9
	c-0.2-0.2-0.3-0.2-0.5-0.4c-0.2-0.2-0.3-0.3-0.4-0.5c-0.2,0.2-0.3,0.3-0.4,0.5c-0.2,0.2-0.3,0.3-0.4,0.5c0.3,0.3,0.5,0.6,0.8,0.9
	C57,11.8,57,11.8,57.1,11.8 M47.7,20.1c-0.1-0.2-0.3-0.4-0.5-0.7l-0.7,0.8c0.2,0.2,0.3,0.5,0.5,0.7C47.2,20.7,47.5,20.3,47.7,20.1
	 M58,13.9c-0.2-0.2-0.6-0.5-1-0.9c-0.4,0.5-0.6,1-0.8,1.4c0.1,0.1,0.3,0.3,0.4,0.4c0.2,0.2,0.4,0.3,0.5,0.5
	C57.4,14.9,57.7,14.4,58,13.9 M77.8,20.4l-0.7-0.8c-0.2,0.3-0.4,0.5-0.5,0.7c0.2,0.2,0.5,0.6,0.7,0.8C77.5,20.8,77.6,20.6,77.8,20.4
	 M24.3,26.1c0.8-0.3,1.2-0.2,2,0c0.8,0.2,1.8-0.1,1.8-0.1s-0.9,0.5-1.2,1.4c-0.3,0.9,0.1,2.2,1.3,2.4c1.2,0.2,1.6,0.1,2.2,0.2
	c0.6,0.1,1.3,0.1,1.3,0.1s-0.5-0.6-0.9-0.9c-0.4-0.3-1-0.6-0.8-1.2c0.2-0.5,1.2-1.2,2-2c0.9-0.8,0.8-2.1,0.2-2.9
	c-0.7-0.9-1.2-1.6-1.9-2.6c-0.8-1,0-2.1,0-2.1s1.3-0.1,2.3-0.3c1.1-0.2,1.6-0.5,1.6-0.5s-0.1,1.1-0.2,2.1c-0.1,0.8-0.7,2.5,0.3,4
	c0.8,1.2,3.3,2,4,2.2c0.9,0.2,1.7,0.3,2.7,0.3l0.2,0c0.8,0.1,1.8,0.1,4.4,0.1c2.6,0,4.7-0.2,6.2-0.4c1.5-0.2,2.6-0.5,3.2-0.6
	c3-0.9,4.7-3,4.7-3s1.1,0.5,2.3,0.5c1,0,2.2-0.5,2.2-0.5s1.9,2,3.6,2.6c1.4,0.5,3,0.9,4.6,1.1l0.2,0c1.5,0.2,3.5,0.4,6.1,0.4
	c2.6,0,3.6,0,4.4-0.1l0.2,0c1-0.1,1.7-0.1,2.7-0.3c0.8-0.2,3.2-1,4-2.2c1-1.5,0.4-3.3,0.3-4c-0.2-1-0.2-2.1-0.2-2.1s0.5,0.3,1.6,0.5
	c1.1,0.2,2.3,0.3,2.3,0.3s0.8,1.1,0.1,2.1c-0.7,0.9-1.2,1.6-1.9,2.6c-0.6,0.8-0.7,2.1,0.2,2.9c0.8,0.7,1.9,1.5,2,2
	c0.2,0.6-0.4,0.9-0.8,1.2c-0.4,0.3-0.9,0.9-0.9,0.9s0.7,0,1.3-0.1c0.5-0.1,1,0,2.2-0.2c1.2-0.2,1.6-1.5,1.3-2.4
	c-0.3-0.9-1.2-1.4-1.2-1.4s1,0.3,1.8,0.1c0.8-0.2,1.2-0.3,2,0c0.8,0.3,0.8,0.7,0.8,0.7s0.4-0.9,0.3-1.8c-0.2-0.9-1.3-1.4-2.5-1.5
	c-1.2-0.1-0.5-0.9,0-1.4c0.5-0.5,1.8-1.4,1.5-3c-0.3-1.5-1.7-2-3.6-2.5c-1.8-0.5-2-2.1-3-2.8c-1.7-1.3-3.1-0.3-3.7,0.1
	c-0.6,0.4-1.4,0.4-2.1,0.6c-0.6,0.2-1.2,0.6-1.8,1.7c-1,1.7,0.4,3.5,1.1,5.3c0.7,1.8-0.2,3.2-2.3,3.7c-0.8,0.2-1.6,0.2-1.7,0.2
	c0-0.2,0.1-0.4,0.1-0.6c0.1-0.2,0.3-1.1,0.7-1.9c0.4-0.8,0.9-2.3,0.9-2.3c0.1-1.1-0.7-1.8-1-2c-0.4-0.2-1-0.4-1.8-0.6
	c-0.6-0.2-1-0.4-1.1-0.6c0.1-0.2,0.2-0.4,0.2-0.6c0-0.2-0.1-0.5-0.2-0.7h0.2l0-0.1L80,15l1.2,0.3l0-1.4l-1.3,0.3l0.3-1.4l-1.4,0
	l0.3,1.5l-1.3-0.4l0,1.3l1.2-0.3l-0.7,1.3l0,0.1h0.2c0,0,0,0,0,0.1c-0.1,0.2-0.2,0.4-0.2,0.6c0,0.2,0.1,0.4,0.2,0.6
	c-0.1,0.1-0.5,0.4-1.1,0.6c-0.8,0.3-1.4,0.4-1.8,0.6c-0.4,0.2-1.1,0.9-1,2c0.1,1.1,0.5,1.5,0.9,2.3c0.4,0.8,0.7,1.6,0.7,1.9
	c0,0.1,0,0.2,0.1,0.4c-0.1,0-0.6,0-0.7,0c-0.7-0.1-1.9-0.2-3-0.7l0,0c-2.3-1-4.1-2.7-4.8-3.8c-0.7-1.2-0.7-1.8-0.6-2.3
	c0.1-0.5,0.3-1.2,0.3-1.2c0.2-0.6,0.5-1.3,1-2.1c0.7-1.3,1.2-2.1,1.2-3.5c0-1.8-0.6-2.6-1.5-3.2c-0.6-0.4-1.4-0.5-2.7-0.9
	c-1-0.3-1.8-0.8-2-1c0.2-0.3,0.3-0.5,0.3-0.8c0-0.4-0.1-0.7-0.3-1c0-0.1-0.1-0.1-0.1-0.1h0.2l0-0.2l-1.2-1.6l1.7,0.2l-0.1-1.8
	l-1.6,0.4L63,0h-2.2l0.4,1.6l-1.7-0.3v1.9l1.8-0.3L60,4.5l0,0.2h0.2C60,5,59.9,5.3,59.9,5.8c0,0.3,0.1,0.7,0.3,1.1
	C60,7,59.4,7.3,58.3,7.7C57,8,56.2,8.1,55.4,8.5c-0.8,0.5-1.5,1.6-1.4,3.3c0.1,1.5,1.1,2.9,1.7,4.2c0.7,1.3,0.7,2,0.8,2.4
	c0.1,0.3,0,0.8,0,1.1c-0.1,0.6-0.1,0.8-0.6,1.4c-0.9,1.3-2.2,2.2-4.4,3.3c-1.3,0.6-2.5,0.9-3,0.9c-0.1,0-0.6,0-0.7,0
	c0-0.2,0.1-0.3,0.1-0.4c0-0.2,0.3-1.1,0.7-1.9c0.4-0.8,0.8-1.3,0.9-2.4c0.1-1.1-0.7-1.8-1-2c-0.4-0.2-1-0.4-1.8-0.6
	c-0.6-0.2-1-0.5-1.1-0.6c0.1-0.2,0.1-0.4,0.1-0.6c0-0.2-0.1-0.4-0.2-0.6c0,0,0-0.1,0-0.1h0.2l0-0.1l-0.7-1.3l1.2,0.4l0-1.3L45,14.1
	l0.4-1.5l-1.4,0l0.3,1.3L43,13.8l0,1.4l1.2-0.3l-0.8,1.2l0,0.1h0.2c-0.1,0.2-0.2,0.4-0.2,0.7c0,0.2,0.1,0.4,0.2,0.6
	c-0.1,0.1-0.5,0.4-1.1,0.6c-0.8,0.2-1.4,0.4-1.8,0.6c-0.4,0.2-1.1,1-1,2c0.1,1.1,0.4,1.5,0.9,2.3c0.4,0.8,0.7,1.6,0.7,1.9
	c0,0.2,0.1,0.4,0.1,0.6c-0.1,0-0.8,0-1.7-0.2c-2.2-0.5-3-1.9-2.3-3.7c0.7-1.8,2-3.6,1.1-5.3c-0.7-1.2-1.2-1.6-1.8-1.7
	c-0.6-0.2-1.5-0.2-2-0.6c-0.6-0.4-2-1.4-3.7-0.1c-0.9,0.7-1.1,2.3-3,2.8c-1.8,0.5-3.3,0.9-3.6,2.5c-0.3,1.6,1,2.5,1.5,3
	c0.5,0.5,1.2,1.3,0,1.4c-1.2,0.1-2.4,0.6-2.5,1.5c-0.2,0.9,0.3,1.8,0.3,1.8S23.6,26.3,24.3,26.1 M88.6,15.4c0.7-0.1,1-0.3,1.7-0.6
	c0.8-0.4,1.3-0.9,2.1-0.6c0.7,0.3,1.2,1,1.7,1.7c0.6,0.7,1.2,1.3,1.7,1.5c0.5,0.2,1.7,0.3,2.4,0.7c1,0.5,1.3,1.6,0.4,2.9
	c-0.9,1.3-1.8,1.7-1.6,2.3c0.2,0.7,1,1,1.6,1.1c1.8,0.2,1.8,1.3,1.8,1.3s-0.8-0.8-2.1-0.4c-0.5,0.2-1.5,0.3-2,0.2
	c-0.5-0.1-1-0.5-1-0.5s-0.4,0.6-0.2,1c0.3,0.4,0.6,0.6,0.9,1c0.4,0.5,0.9,1.2-0.3,1.9c-0.7,0.4-1.5,0.3-1.5,0.3s1-0.3,0.8-1.3
	c-0.2-0.7-1.2-1.4-1.9-1.9c-1.1-0.7-0.9-1.7-0.4-2.5c0.5-0.9,1.5-1.9,2.2-3.1c0.6-1.1,0.1-1.5,0.1-1.5s2.4-0.5,2.1,1.4
	c-0.1,0.7,0,1.4,0.4,0.9c0.4-0.5,0.9-1.7,0.1-2.3c-0.8-0.6-1.5-0.7-2.6-0.9c-1.1-0.2-2.9-0.2-4.4-0.8c-1.4-0.7-1.1-0.6-1.9-0.9
	c-1.4-0.5-2.2,0.3-2.2,0.3S87.4,15.6,88.6,15.4 M87,19.3c-0.4-1,0.3-1.8,1.2-2c0.5-0.1,1,0.2,1,0.2s0,0.5,0,0.8
	c0,0.2,0.2,1.3,0.4,2.3c0.4,1.7-0.2,2.7-1.3,3.7c-0.6,0.5-1.3,0.7-1.3,0.7s0.3-0.3,0.6-0.9c0.4-0.8,0.6-1.4,0.3-2.4
	C87.7,20.9,87.5,20.4,87,19.3 M82.4,25.2c0,0.2,0,0.3,0,0.3s-0.9-0.2-2.7-0.3c-1.7,0-2.7,0.3-2.7,0.3v-0.2c0-0.1,0-0.3,0-0.3
	s1.2-0.4,2.7-0.5c1.5,0,2.8,0.5,2.8,0.5S82.4,25.1,82.4,25.2 M77.6,23.2c0,0,0.6-0.2,1,0c0.4,0.2,0.7,0.9,0.7,0.9s-0.7,0.1-1-0.1
	C77.9,23.8,77.6,23.2,77.6,23.2 M79.7,23.8c0,0-0.3-0.5-0.3-1.1c0-0.6,0.4-1,0.4-1s0.4,0.6,0.3,1.1C80,23.3,79.7,23.8,79.7,23.8
	 M81,23.3c0.4-0.2,0.9,0,0.9,0s-0.2,0.5-0.6,0.6c-0.3,0.2-1.2,0.2-1.2,0.2S80.6,23.5,81,23.3 M81.1,18.6l0.1,0.1c0,0,0,0.4-0.1,1
	c0,0,0.1,0.1,0.1,0.1l0.7-0.7c-0.3-0.3-0.4-0.4-0.4-0.4l0.5,0.1l0.5,0.1c0,0,0.2,0.1,0.7,0.9c0.2-0.2,0.3-0.4,0.3-0.4
	s0.2,0.1,0.3,0.3C84,19.9,84,20,84,20c-0.1,0.1-0.2,0.3-0.3,0.4c0.3,0.6,0.4,0.8,0.4,0.8c0,0-0.1,0.2-0.2,0.4
	c-0.1,0.3-0.2,0.3-0.2,0.3s-0.2-0.6-0.5-1c-0.2,0.2-0.4,0.6-0.6,0.8c0.5,0.8,0.5,1.2,0.5,1.2c0,0,0,0.1-0.2,0.3
	c-0.2,0.3-0.3,0.6-0.3,0.6c0,0-0.1-0.8-0.6-1.7c-0.4,0.3-0.7,0.5-0.7,0.5l-0.6-0.5c0,0,0.4-0.2,0.8-0.7c-0.3-0.5-0.6-0.8-0.7-1
	c-0.2,1-0.3,1.6-0.3,1.6L80,21.8c0,0,0.1-0.6,0.2-1.7c0.1-1,0.1-1.9,0.1-1.9L81.1,18.6z M79.8,16.4c0.3,0,0.6,0.3,0.6,0.6
	c0,0.3-0.3,0.6-0.6,0.6c-0.3,0-0.6-0.3-0.6-0.6C79.2,16.7,79.4,16.4,79.8,16.4 M76.3,20.9c-0.2,0.5-0.5,1-0.5,1s-0.1-0.1-0.2-0.3
	c-0.1-0.3-0.2-0.4-0.2-0.4c0,0,0.1-0.1,0.4-0.8c-0.1-0.1-0.2-0.4-0.3-0.4c0,0,0-0.1,0.1-0.3c0.1-0.2,0.3-0.3,0.3-0.3
	s0.1,0.2,0.3,0.4c0.5-0.7,0.7-0.8,0.7-0.9l0.5-0.1l0.5-0.1c0,0-0.2,0.2-0.4,0.4l0.7,0.7c0,0,0.1-0.1,0.1-0.1
	c-0.1-0.6-0.1-1.1-0.1-1.1l0.1,0l0.7-0.3c0,0,0,0.9,0.2,1.9c0.1,1.1,0.2,1.6,0.2,1.6l-0.5,0.3c0,0-0.1-0.6-0.3-1.5
	c-0.1,0.2-0.4,0.5-0.7,0.9c0.5,0.5,0.8,0.7,0.8,0.7l-0.6,0.5c0,0-0.2-0.2-0.7-0.5c-0.5,0.8-0.6,1.7-0.6,1.7c0,0-0.1-0.3-0.3-0.6
	C76.4,23,76.4,23,76.4,23c0,0,0.1-0.4,0.5-1.2C76.7,21.6,76.4,21.1,76.3,20.9 M61.8,21.6c-1,0-1.7-0.3-1.7-0.3l0.7-0.9
	c0,0,0.5,0.6,1.1,0.6c0.6,0,1-0.6,1-0.6l0.7,0.9C63.5,21.2,62.9,21.5,61.8,21.6 M62,19c-2.9,0.1-4.5,0.4-4.5,0.4s0-0.3,0-0.5
	c0-0.2-0.1-0.4-0.1-0.4s2.2-0.9,4.6-0.8c2.4,0.1,4.5,0.8,4.5,0.8s0,0.4,0,0.5v0.4C66.5,19.5,64.9,19,62,19 M61.9,11.2
	c-0.4,0-0.6-0.3-0.6-0.6c0-0.4,0.3-0.6,0.6-0.6c0.3,0,0.6,0.3,0.6,0.6C62.5,10.9,62.3,11.2,61.9,11.2 M62.3,12.2
	c0,0.2-0.2,0.4-0.4,0.4c-0.2,0-0.4-0.2-0.4-0.4c0-0.2,0.2-0.4,0.4-0.4C62.1,11.8,62.3,12,62.3,12.2 M61.9,13.2c0,0,0.6,0.8,0.6,1.7
	c0,0.9-0.6,1.8-0.6,1.8s-0.5-0.8-0.6-1.7C61.3,14.2,61.9,13.2,61.9,13.2 M61.9,9.4C61.4,9.4,61,9,61,8.5c0-0.5,0.4-0.9,0.9-0.9
	c0.5,0,0.9,0.4,0.9,0.9C62.8,9,62.4,9.4,61.9,9.4 M58.1,15.7c0,0,1.2-0.1,1.9,0.2c0.7,0.3,1.2,1.3,1.2,1.3s-1.4,0.1-2-0.2
	C58.7,16.7,58.1,15.7,58.1,15.7 M62.6,17.2c0,0,0.7-1.1,1.3-1.4c0.7-0.3,1.7-0.3,1.7-0.3s-0.6,1.1-1.2,1.3
	C63.9,17.1,62.6,17.2,62.6,17.2 M67.7,22.5c1.7,1.4,3.9,2.5,3.9,2.5s-2.7-0.6-4.7-1.9c-1.8-1.2-2.7-2.7-2.7-2.7l1.8,0.1
	C66,20.4,66.4,21.3,67.7,22.5 M64.6,11.2c0,0,0.1-0.1,0.3-0.3c-0.1-0.1-0.2-0.3-0.2-0.3l0.1-1c0,0,0.3,0.4,0.6,0.8
	c0.1-0.1,0,0,0.1-0.1c0.3-0.3,0.5-0.6,0.7-0.8c-0.7-0.8-1.3-1.2-1.3-1.2l0.6,0.1l0.8,0.2c0,0,0.1,0,0.4,0.3c0.1-0.1,0.1-0.2,0.1-0.2
	L67.5,9c0,0,0,0.1-0.3,0.4c0.2,0.2,0.3,0.4,0.6,0.6c0.1,0.1,0.2,0.2,0.3,0.4c0.3-0.4,0.4-0.6,0.4-0.6l0.3,0.8c0,0-0.1,0.1-0.3,0.4
	c0.3,0.7,0.5,1.1,0.5,1.1l-0.3,0.9c0,0-0.2-0.6-0.7-1.4c-0.3,0.3-0.5,0.5-0.8,0.9c0.4,0.5,0.7,1.1,0.9,1.4c0.3-0.4,0.5-0.6,0.5-0.6
	l-0.5,0.9c0,0,0,0,0,0L67.7,15c0,0-0.2,0.2-0.3,0.3c-0.1,0.1-0.3,0.3-0.5,0.5c0.1,0.3,0.2,0.5,0.2,0.5l-0.3,1.1c0,0-0.7-1.7-1.3-2.7
	c-0.7-1-1.3-1.7-1.3-1.7l0.2-0.8c0,0,0.3,0.2,1,1.1c0.2-0.2,0.6-0.6,0.9-0.9c0,0,0,0,0,0c-0.4-0.4-0.7-0.8-0.9-1
	c-0.5,0.5-0.9,0.8-0.9,0.8L64.6,11.2z M63.5,7.5L64.3,8l0.2,0c0,0-0.1,1.4-0.4,3c-0.3,1.8-0.6,2.8-0.6,2.8l-0.6-0.3
	c0,0,0.1-0.9,0.3-2.7C63.4,9.2,63.5,7.5,63.5,7.5 M61.8,4.5c0.7,0,1.2,0.5,1.2,1.2c0,0.7-0.5,1.2-1.2,1.2c-0.7,0-1.2-0.5-1.2-1.2
	C60.6,5.1,61.2,4.5,61.8,4.5 M59.7,8l0.7-0.4c0,0,0.2,1.6,0.3,3.2c0.2,1.8,0.3,2.7,0.3,2.7l-0.6,0.3c0,0-0.3-1.1-0.6-2.8
	c-0.3-1.6-0.4-3-0.4-3L59.7,8z M56.4,15.4c-0.1-0.1-0.3-0.3-0.3-0.3l-0.5-0.8c0,0,0,0,0,0l-0.5-0.9c0,0,0.2,0.2,0.5,0.6
	c0.2-0.3,0.5-0.8,0.9-1.4c-0.3-0.4-0.6-0.6-0.8-0.9C55.2,12.4,55,13,55,13l-0.3-0.9c0,0,0.2-0.4,0.5-1.1C55,10.7,55,10.6,55,10.6
	l0.3-0.8c0,0,0.1,0.2,0.4,0.6c0.1-0.1,0.2-0.2,0.3-0.4c0.2-0.3,0.4-0.5,0.5-0.6C56.2,9.1,56.2,9,56.2,9l0.6-0.3c0,0,0,0,0.1,0.2
	c0.3-0.3,0.4-0.3,0.4-0.3l0.8-0.2l0.6-0.1c0,0-0.5,0.4-1.3,1.2c0.2,0.3,0.5,0.6,0.7,0.8c0.1,0.1,0.1,0,0.1,0.1
	c0.3-0.4,0.7-0.8,0.7-0.8l0.1,1c0,0-0.1,0.1-0.2,0.3c0.2,0.2,0.3,0.3,0.3,0.3l0.2,1c0,0-0.4-0.4-0.9-0.8c-0.2,0.3-0.5,0.6-0.9,1
	c0,0,0,0,0,0c0.4,0.4,0.7,0.8,0.9,0.9c0.7-0.9,1-1.1,1-1.1l0.2,0.8c0,0-0.6,0.6-1.3,1.7c-0.6,1-1.3,2.7-1.3,2.7l-0.3-1.1
	c0,0,0.1-0.2,0.2-0.5C56.7,15.7,56.5,15.5,56.4,15.4 M56,22.5c1.3-1.2,1.7-2,1.7-2l1.8-0.1c0,0-0.8,1.5-2.7,2.7
	c-2,1.3-4.7,1.9-4.7,1.9S54.3,23.9,56,22.5 M47.4,25.1v0.2c0,0-1-0.3-2.7-0.3c-1.7,0-2.7,0.3-2.7,0.3s0-0.1,0-0.3c0-0.1,0-0.2,0-0.2
	s1.3-0.5,2.8-0.5c1.5,0,2.7,0.5,2.7,0.5S47.4,25,47.4,25.1 M44.3,24c0,0-0.9,0-1.2-0.2c-0.3-0.2-0.6-0.6-0.6-0.6s0.5-0.2,0.9,0
	C43.8,23.3,44.3,24,44.3,24 M44.3,22.7c-0.1-0.5,0.3-1.1,0.3-1.1s0.3,0.5,0.4,1c0,0.6-0.3,1.1-0.3,1.1S44.4,23.2,44.3,22.7
	 M45.1,23.9c0,0,0.3-0.7,0.7-0.9c0.4-0.2,1,0,1,0s-0.4,0.6-0.7,0.8C45.8,24,45.1,23.9,45.1,23.9 M46,18.4L46,18.4
	c0.1,0,0.1,0.5,0,1.1c0,0,0.1,0.1,0.1,0.1l0.7-0.7c-0.2-0.3-0.4-0.4-0.4-0.4l0.5,0.1l0.5,0.1c0,0,0.2,0.1,0.7,0.9
	c0.2-0.2,0.3-0.4,0.3-0.4s0.2,0.1,0.3,0.3c0.1,0.2,0.1,0.3,0.1,0.3c-0.1,0.1-0.2,0.3-0.3,0.5c0.3,0.6,0.4,0.8,0.4,0.8
	c0,0-0.1,0.2-0.2,0.4c-0.1,0.3-0.2,0.3-0.2,0.3s-0.2-0.6-0.5-1c-0.2,0.2-0.4,0.6-0.6,0.8c0.5,0.8,0.5,1.2,0.5,1.2c0,0,0,0.1-0.2,0.3
	c-0.2,0.3-0.3,0.6-0.3,0.6S47.4,22.8,47,22c-0.4,0.3-0.7,0.5-0.7,0.5L45.7,22c0,0,0.4-0.2,0.8-0.7c-0.3-0.4-0.6-0.8-0.7-0.9
	c-0.2,1-0.3,1.5-0.3,1.5L45,21.6c0,0,0-0.5,0.2-1.6c0.1-1,0.2-1.9,0.2-1.9L46,18.4z M44.6,16.2c0.3,0,0.6,0.3,0.6,0.6
	c0,0.3-0.3,0.6-0.6,0.6c-0.3,0-0.6-0.3-0.6-0.6C44,16.5,44.3,16.2,44.6,16.2 M41.3,22.8c0,0,0.1-0.4,0.5-1.2
	c-0.2-0.2-0.4-0.6-0.6-0.8c-0.2,0.5-0.5,1-0.5,1s-0.1-0.1-0.2-0.3c-0.1-0.3-0.2-0.4-0.2-0.4c0,0,0.1-0.1,0.4-0.8
	c-0.1-0.1-0.2-0.4-0.3-0.5c0,0,0-0.1,0.1-0.3c0.1-0.2,0.4-0.3,0.4-0.3s0.1,0.2,0.3,0.4c0.5-0.7,0.7-0.9,0.7-0.9l0.5-0.1l0.5-0.1
	c0,0-0.2,0.2-0.4,0.4l0.7,0.7c0,0,0.1-0.1,0.1-0.1c-0.1-0.6-0.1-1-0.1-1l0.1-0.1L44,18c0,0,0,0.9,0.1,1.9c0.1,1.1,0.2,1.7,0.2,1.7
	l-0.6,0.3c0,0-0.1-0.6-0.3-1.6c-0.1,0.2-0.4,0.5-0.7,1c0.5,0.5,0.8,0.7,0.8,0.7L43,22.5c0,0-0.2-0.2-0.7-0.5
	c-0.5,0.8-0.6,1.7-0.6,1.7s-0.1-0.3-0.3-0.6C41.3,22.8,41.3,22.8,41.3,22.8 M37.4,19.1c-0.4,1.1-0.7,1.6-0.9,2.5
	c-0.3,0.9-0.1,1.6,0.3,2.4c0.3,0.6,0.6,0.9,0.6,0.9s-0.6-0.2-1.3-0.7c-1.1-0.9-1.7-1.9-1.3-3.7c0.2-1.1,0.4-2.1,0.4-2.3
	c0-0.2,0-0.8,0-0.8s0.4-0.3,1-0.2C37,17.3,37.8,18.1,37.4,19.1 M25.7,24.3c0.6-0.1,1.4-0.4,1.6-1.1c0.2-0.6-0.7-1-1.6-2.3
	c-0.9-1.3-0.6-2.4,0.4-2.9c0.7-0.4,1.9-0.5,2.4-0.7c0.5-0.2,1.1-0.7,1.7-1.5c0.6-0.7,1-1.5,1.7-1.7c0.8-0.3,1.4,0.2,2.1,0.6
	c0.7,0.4,1,0.5,1.7,0.6c1.1,0.2,1.7,1.1,1.7,1.1s-0.8-0.8-2.2-0.3c-0.7,0.3-0.4,0.2-1.9,0.9c-1.4,0.7-3.2,0.7-4.4,0.8
	c-1.1,0.2-1.8,0.3-2.6,0.9c-0.8,0.6-0.3,1.8,0.1,2.3c0.4,0.5,0.5-0.2,0.4-0.9c-0.3-1.9,2.1-1.4,2.1-1.4s-0.5,0.4,0.1,1.5
	c0.7,1.2,1.6,2.2,2.2,3.1c0.5,0.9,0.7,1.8-0.4,2.5c-0.7,0.5-1.7,1.1-1.9,1.9c-0.2,1,0.8,1.3,0.8,1.3s-0.8,0.1-1.5-0.3
	c-1.2-0.7-0.6-1.4-0.2-1.9c0.3-0.4,0.7-0.6,0.9-1c0.3-0.4-0.2-1-0.2-1s-0.5,0.4-1,0.5c-0.5,0.1-1.5-0.1-2-0.2c-1.3-0.4-2,0.4-2,0.4
	S23.9,24.5,25.7,24.3 M42.7,20.2l-0.7-0.8c-0.2,0.3-0.4,0.5-0.5,0.7c0.2,0.2,0.5,0.6,0.7,0.8C42.4,20.6,42.5,20.4,42.7,20.2
	 M82.8,20.3c-0.1-0.2-0.3-0.4-0.5-0.7l-0.7,0.8c0.2,0.2,0.3,0.5,0.5,0.7C82.3,20.9,82.6,20.5,82.8,20.3"/>
</svg>
